<svg width="243" height="395" viewBox="0 0 243 395" fill="none" xmlns="http://www.w3.org/2000/svg">
<path d="M25.618 229.896V250H23.014V235.692C23.014 235.477 23.0187 235.249 23.028 235.006C23.0467 234.763 23.0653 234.516 23.084 234.264L16.392 246.542C16.1587 246.999 15.7993 247.228 15.314 247.228H14.894C14.4087 247.228 14.054 246.999 13.83 246.542L7.012 234.222C7.068 234.745 7.096 235.235 7.096 235.692V250H4.478V229.896H6.69C6.95133 229.896 7.152 229.924 7.292 229.98C7.44133 230.027 7.58133 230.167 7.712 230.4L14.432 242.44C14.5627 242.683 14.684 242.939 14.796 243.21C14.908 243.481 15.0153 243.751 15.118 244.022C15.314 243.471 15.5427 242.939 15.804 242.426L22.398 230.4C22.5193 230.167 22.65 230.027 22.79 229.98C22.9393 229.924 23.1447 229.896 23.406 229.896H25.618ZM32.6685 235.776V250H29.9385V235.776H32.6685ZM33.1865 231.38C33.1865 231.632 33.1352 231.875 33.0325 232.108C32.9299 232.332 32.7899 232.533 32.6125 232.71C32.4445 232.878 32.2439 233.013 32.0105 233.116C31.7772 233.209 31.5345 233.256 31.2825 233.256C31.0305 233.256 30.7925 233.209 30.5685 233.116C30.3445 233.013 30.1439 232.878 29.9665 232.71C29.7985 232.533 29.6632 232.332 29.5605 232.108C29.4672 231.875 29.4205 231.632 29.4205 231.38C29.4205 231.119 29.4672 230.876 29.5605 230.652C29.6632 230.419 29.7985 230.218 29.9665 230.05C30.1439 229.873 30.3445 229.737 30.5685 229.644C30.7925 229.541 31.0305 229.49 31.2825 229.49C31.5345 229.49 31.7772 229.541 32.0105 229.644C32.2439 229.737 32.4445 229.873 32.6125 230.05C32.7899 230.218 32.9299 230.419 33.0325 230.652C33.1352 230.876 33.1865 231.119 33.1865 231.38ZM39.1831 237.75C39.4911 237.423 39.8131 237.125 40.1491 236.854C40.4851 236.583 40.8398 236.355 41.2131 236.168C41.5958 235.972 42.0018 235.823 42.4311 235.72C42.8698 235.608 43.3365 235.552 43.8311 235.552C44.6151 235.552 45.3011 235.683 45.8891 235.944C46.4865 236.205 46.9858 236.574 47.3871 237.05C47.7885 237.517 48.0918 238.081 48.2971 238.744C48.5025 239.407 48.6051 240.139 48.6051 240.942V250H45.8611V240.942C45.8611 239.925 45.6278 239.136 45.1611 238.576C44.6945 238.007 43.9805 237.722 43.0191 237.722C42.3191 237.722 41.6611 237.89 41.0451 238.226C40.4385 238.553 39.8738 239.001 39.3511 239.57V250H36.6211V235.776H38.2591C38.6418 235.776 38.8798 235.958 38.9731 236.322L39.1831 237.75ZM55.1451 235.776V250H52.4151V235.776H55.1451ZM55.6631 231.38C55.6631 231.632 55.6118 231.875 55.5091 232.108C55.4064 232.332 55.2664 232.533 55.0891 232.71C54.9211 232.878 54.7204 233.013 54.4871 233.116C54.2538 233.209 54.0111 233.256 53.7591 233.256C53.5071 233.256 53.2691 233.209 53.0451 233.116C52.8211 233.013 52.6204 232.878 52.4431 232.71C52.2751 232.533 52.1398 232.332 52.0371 232.108C51.9438 231.875 51.8971 231.632 51.8971 231.38C51.8971 231.119 51.9438 230.876 52.0371 230.652C52.1398 230.419 52.2751 230.218 52.4431 230.05C52.6204 229.873 52.8211 229.737 53.0451 229.644C53.2691 229.541 53.5071 229.49 53.7591 229.49C54.0111 229.49 54.2538 229.541 54.4871 229.644C54.7204 229.737 54.9211 229.873 55.0891 230.05C55.2664 230.218 55.4064 230.419 55.5091 230.652C55.6118 230.876 55.6631 231.119 55.6631 231.38ZM67.4837 238.226C67.409 238.347 67.3297 238.436 67.2457 238.492C67.1617 238.539 67.0544 238.562 66.9237 238.562C66.7744 238.562 66.6064 238.511 66.4197 238.408C66.2424 238.305 66.023 238.193 65.7617 238.072C65.5097 237.951 65.211 237.839 64.8657 237.736C64.5204 237.633 64.1097 237.582 63.6337 237.582C63.2417 237.582 62.8824 237.633 62.5557 237.736C62.2384 237.829 61.9677 237.965 61.7437 238.142C61.5197 238.31 61.347 238.515 61.2257 238.758C61.1044 238.991 61.0437 239.243 61.0437 239.514C61.0437 239.869 61.1464 240.163 61.3517 240.396C61.5664 240.629 61.8417 240.83 62.1777 240.998C62.523 241.166 62.9104 241.32 63.3397 241.46C63.7784 241.591 64.2217 241.731 64.6697 241.88C65.127 242.029 65.5704 242.202 65.9997 242.398C66.4384 242.585 66.8257 242.823 67.1617 243.112C67.507 243.392 67.7824 243.733 67.9877 244.134C68.2024 244.535 68.3097 245.025 68.3097 245.604C68.3097 246.267 68.1884 246.883 67.9457 247.452C67.7124 248.012 67.3624 248.497 66.8957 248.908C66.4384 249.319 65.869 249.641 65.1877 249.874C64.5064 250.107 63.727 250.224 62.8497 250.224C61.8697 250.224 60.9644 250.061 60.1337 249.734C59.303 249.407 58.6077 248.992 58.0477 248.488L58.6917 247.438C58.7664 247.307 58.8597 247.209 58.9717 247.144C59.0837 247.069 59.233 247.032 59.4197 247.032C59.597 247.032 59.779 247.097 59.9657 247.228C60.1524 247.359 60.3764 247.503 60.6377 247.662C60.899 247.811 61.2164 247.951 61.5897 248.082C61.963 248.203 62.4297 248.264 62.9897 248.264C63.4564 248.264 63.8624 248.208 64.2077 248.096C64.553 247.975 64.8377 247.816 65.0617 247.62C65.295 247.415 65.4677 247.181 65.5797 246.92C65.6917 246.659 65.7477 246.383 65.7477 246.094C65.7477 245.721 65.6404 245.413 65.4257 245.17C65.2204 244.918 64.945 244.703 64.5997 244.526C64.2637 244.349 63.8764 244.195 63.4377 244.064C62.999 243.933 62.551 243.793 62.0937 243.644C61.6364 243.495 61.1884 243.322 60.7497 243.126C60.311 242.93 59.919 242.683 59.5737 242.384C59.2377 242.085 58.9624 241.721 58.7477 241.292C58.5424 240.863 58.4397 240.34 58.4397 239.724C58.4397 239.173 58.5517 238.646 58.7757 238.142C59.009 237.638 59.3404 237.195 59.7697 236.812C60.2084 236.429 60.745 236.126 61.3797 235.902C62.0237 235.669 62.7564 235.552 63.5777 235.552C64.5204 235.552 65.3697 235.701 66.1257 236C66.891 236.299 67.5444 236.709 68.0857 237.232L67.4837 238.226ZM75.7177 250.224C74.5697 250.224 73.683 249.902 73.0577 249.258C72.4417 248.614 72.1337 247.695 72.1337 246.5V237.988H70.4817C70.323 237.988 70.1877 237.941 70.0757 237.848C69.973 237.745 69.9217 237.596 69.9217 237.4V236.294L72.2317 235.972L72.8477 231.73C72.885 231.571 72.955 231.45 73.0577 231.366C73.1697 231.273 73.3097 231.226 73.4777 231.226H74.8637V236H78.8957V237.988H74.8637V246.318C74.8637 246.878 74.999 247.298 75.2697 247.578C75.5497 247.849 75.9043 247.984 76.3337 247.984C76.5857 247.984 76.8003 247.951 76.9777 247.886C77.1643 247.821 77.323 247.751 77.4537 247.676C77.5843 247.592 77.6963 247.517 77.7897 247.452C77.883 247.387 77.967 247.354 78.0417 247.354C78.135 247.354 78.205 247.377 78.2517 247.424C78.3077 247.461 78.3637 247.527 78.4197 247.62L79.2317 248.936C78.7837 249.347 78.2517 249.664 77.6357 249.888C77.0197 250.112 76.3803 250.224 75.7177 250.224ZM83.9862 238.506C84.4435 237.573 84.9942 236.84 85.6382 236.308C86.2822 235.776 87.0569 235.51 87.9622 235.51C88.2702 235.51 88.5595 235.547 88.8302 235.622C89.1102 235.687 89.3529 235.79 89.5582 235.93L89.3762 237.988C89.3109 238.24 89.1569 238.366 88.9142 238.366C88.7835 238.366 88.5875 238.343 88.3262 238.296C88.0649 238.24 87.7849 238.212 87.4862 238.212C87.0475 238.212 86.6602 238.277 86.3242 238.408C85.9882 238.529 85.6849 238.716 85.4142 238.968C85.1529 239.211 84.9195 239.514 84.7142 239.878C84.5089 240.233 84.3175 240.639 84.1402 241.096V250H81.4102V235.776H82.9782C83.2769 235.776 83.4775 235.832 83.5802 235.944C83.6922 236.047 83.7715 236.233 83.8182 236.504L83.9862 238.506ZM104.096 235.776L96.2001 254.13C96.1161 254.335 96.0041 254.494 95.8641 254.606C95.7241 254.718 95.5188 254.774 95.2481 254.774H93.2181L95.8221 249.104L89.9841 235.776H92.3641C92.5974 235.776 92.7794 235.832 92.9101 235.944C93.0408 236.056 93.1341 236.182 93.1901 236.322L96.8021 244.862C96.8768 245.077 96.9468 245.296 97.0121 245.52C97.0868 245.735 97.1474 245.949 97.1941 246.164C97.2594 245.94 97.3294 245.721 97.4041 245.506C97.4788 245.282 97.5581 245.063 97.6421 244.848L101.128 236.322C101.193 236.163 101.296 236.033 101.436 235.93C101.576 235.827 101.735 235.776 101.912 235.776H104.096ZM118.644 235.552C119.689 235.552 120.632 235.725 121.472 236.07C122.321 236.406 123.04 236.896 123.628 237.54C124.225 238.175 124.683 238.945 125 239.85C125.317 240.746 125.476 241.754 125.476 242.874C125.476 243.994 125.317 245.007 125 245.912C124.683 246.817 124.225 247.587 123.628 248.222C123.04 248.857 122.321 249.347 121.472 249.692C120.632 250.028 119.689 250.196 118.644 250.196C117.589 250.196 116.637 250.028 115.788 249.692C114.948 249.347 114.229 248.857 113.632 248.222C113.035 247.587 112.573 246.817 112.246 245.912C111.929 245.007 111.77 243.994 111.77 242.874C111.77 241.754 111.929 240.746 112.246 239.85C112.573 238.945 113.035 238.175 113.632 237.54C114.229 236.896 114.948 236.406 115.788 236.07C116.637 235.725 117.589 235.552 118.644 235.552ZM118.644 248.068C119.988 248.068 120.991 247.615 121.654 246.71C122.317 245.805 122.648 244.531 122.648 242.888C122.648 241.245 122.317 239.971 121.654 239.066C120.991 238.151 119.988 237.694 118.644 237.694C117.281 237.694 116.264 238.151 115.592 239.066C114.929 239.971 114.598 241.245 114.598 242.888C114.598 244.531 114.929 245.805 115.592 246.71C116.264 247.615 117.281 248.068 118.644 248.068ZM129.133 250V238.016L127.649 237.834C127.435 237.787 127.257 237.713 127.117 237.61C126.987 237.498 126.921 237.339 126.921 237.134V236H129.133V234.712C129.133 233.9 129.25 233.177 129.483 232.542C129.717 231.907 130.048 231.371 130.477 230.932C130.916 230.484 131.439 230.148 132.045 229.924C132.661 229.691 133.352 229.574 134.117 229.574C134.761 229.574 135.354 229.667 135.895 229.854L135.839 231.226C135.83 231.347 135.793 231.441 135.727 231.506C135.662 231.562 135.573 231.604 135.461 231.632C135.359 231.66 135.228 231.679 135.069 231.688C134.92 231.688 134.757 231.688 134.579 231.688C134.159 231.688 133.777 231.739 133.431 231.842C133.086 231.945 132.792 232.117 132.549 232.36C132.307 232.603 132.12 232.925 131.989 233.326C131.859 233.718 131.793 234.208 131.793 234.796V236H135.783V237.988H131.877V250H129.133ZM171.111 229.896L164.839 250H162.151L157.251 235.09C157.139 234.791 157.041 234.432 156.957 234.012C156.854 234.441 156.756 234.801 156.663 235.09L151.707 250H149.033L142.761 229.896H145.253C145.514 229.896 145.733 229.961 145.911 230.092C146.088 230.213 146.205 230.381 146.261 230.596L150.223 244.05C150.297 244.311 150.363 244.596 150.419 244.904C150.484 245.212 150.549 245.534 150.615 245.87C150.68 245.534 150.745 245.212 150.811 244.904C150.885 244.596 150.969 244.311 151.063 244.05L155.599 230.596C155.655 230.409 155.771 230.246 155.949 230.106C156.135 229.966 156.355 229.896 156.607 229.896H157.461C157.722 229.896 157.937 229.961 158.105 230.092C158.273 230.223 158.394 230.391 158.469 230.596L162.991 244.05C163.159 244.563 163.308 245.147 163.439 245.8C163.551 245.156 163.672 244.573 163.803 244.05L167.779 230.596C167.825 230.409 167.942 230.246 168.129 230.106C168.315 229.966 168.535 229.896 168.787 229.896H171.111ZM177.843 235.552C178.889 235.552 179.831 235.725 180.671 236.07C181.521 236.406 182.239 236.896 182.827 237.54C183.425 238.175 183.882 238.945 184.199 239.85C184.517 240.746 184.675 241.754 184.675 242.874C184.675 243.994 184.517 245.007 184.199 245.912C183.882 246.817 183.425 247.587 182.827 248.222C182.239 248.857 181.521 249.347 180.671 249.692C179.831 250.028 178.889 250.196 177.843 250.196C176.789 250.196 175.837 250.028 174.987 249.692C174.147 249.347 173.429 248.857 172.831 248.222C172.234 247.587 171.772 246.817 171.445 245.912C171.128 245.007 170.969 243.994 170.969 242.874C170.969 241.754 171.128 240.746 171.445 239.85C171.772 238.945 172.234 238.175 172.831 237.54C173.429 236.896 174.147 236.406 174.987 236.07C175.837 235.725 176.789 235.552 177.843 235.552ZM177.843 248.068C179.187 248.068 180.191 247.615 180.853 246.71C181.516 245.805 181.847 244.531 181.847 242.888C181.847 241.245 181.516 239.971 180.853 239.066C180.191 238.151 179.187 237.694 177.843 237.694C176.481 237.694 175.463 238.151 174.791 239.066C174.129 239.971 173.797 241.245 173.797 242.888C173.797 244.531 174.129 245.805 174.791 246.71C175.463 247.615 176.481 248.068 177.843 248.068ZM190.299 238.506C190.756 237.573 191.307 236.84 191.951 236.308C192.595 235.776 193.369 235.51 194.275 235.51C194.583 235.51 194.872 235.547 195.143 235.622C195.423 235.687 195.665 235.79 195.871 235.93L195.689 237.988C195.623 238.24 195.469 238.366 195.227 238.366C195.096 238.366 194.9 238.343 194.639 238.296C194.377 238.24 194.097 238.212 193.799 238.212C193.36 238.212 192.973 238.277 192.637 238.408C192.301 238.529 191.997 238.716 191.727 238.968C191.465 239.211 191.232 239.514 191.027 239.878C190.821 240.233 190.63 240.639 190.453 241.096V250H187.723V235.776H189.291C189.589 235.776 189.79 235.832 189.893 235.944C190.005 236.047 190.084 236.233 190.131 236.504L190.299 238.506ZM200.707 229.336V241.418H201.351C201.547 241.418 201.71 241.39 201.841 241.334C201.971 241.278 202.107 241.166 202.247 240.998L206.503 236.308C206.633 236.131 206.778 236 206.937 235.916C207.095 235.823 207.296 235.776 207.539 235.776H210.031L205.005 241.278C204.734 241.623 204.445 241.889 204.137 242.076C204.314 242.197 204.468 242.337 204.599 242.496C204.739 242.655 204.874 242.827 205.005 243.014L210.353 250H207.903C207.679 250 207.483 249.963 207.315 249.888C207.156 249.813 207.011 249.678 206.881 249.482L202.485 243.77C202.345 243.555 202.205 243.42 202.065 243.364C201.925 243.299 201.715 243.266 201.435 243.266H200.707V250H197.977V229.336H200.707ZM220.773 238.226C220.698 238.347 220.619 238.436 220.535 238.492C220.451 238.539 220.343 238.562 220.213 238.562C220.063 238.562 219.895 238.511 219.709 238.408C219.531 238.305 219.312 238.193 219.051 238.072C218.799 237.951 218.5 237.839 218.155 237.736C217.809 237.633 217.399 237.582 216.923 237.582C216.531 237.582 216.171 237.633 215.845 237.736C215.527 237.829 215.257 237.965 215.033 238.142C214.809 238.31 214.636 238.515 214.515 238.758C214.393 238.991 214.333 239.243 214.333 239.514C214.333 239.869 214.435 240.163 214.641 240.396C214.855 240.629 215.131 240.83 215.467 240.998C215.812 241.166 216.199 241.32 216.629 241.46C217.067 241.591 217.511 241.731 217.959 241.88C218.416 242.029 218.859 242.202 219.289 242.398C219.727 242.585 220.115 242.823 220.451 243.112C220.796 243.392 221.071 243.733 221.277 244.134C221.491 244.535 221.599 245.025 221.599 245.604C221.599 246.267 221.477 246.883 221.235 247.452C221.001 248.012 220.651 248.497 220.185 248.908C219.727 249.319 219.158 249.641 218.477 249.874C217.795 250.107 217.016 250.224 216.139 250.224C215.159 250.224 214.253 250.061 213.423 249.734C212.592 249.407 211.897 248.992 211.337 248.488L211.981 247.438C212.055 247.307 212.149 247.209 212.261 247.144C212.373 247.069 212.522 247.032 212.709 247.032C212.886 247.032 213.068 247.097 213.255 247.228C213.441 247.359 213.665 247.503 213.927 247.662C214.188 247.811 214.505 247.951 214.879 248.082C215.252 248.203 215.719 248.264 216.279 248.264C216.745 248.264 217.151 248.208 217.497 248.096C217.842 247.975 218.127 247.816 218.351 247.62C218.584 247.415 218.757 247.181 218.869 246.92C218.981 246.659 219.037 246.383 219.037 246.094C219.037 245.721 218.929 245.413 218.715 245.17C218.509 244.918 218.234 244.703 217.889 244.526C217.553 244.349 217.165 244.195 216.727 244.064C216.288 243.933 215.84 243.793 215.383 243.644C214.925 243.495 214.477 243.322 214.039 243.126C213.6 242.93 213.208 242.683 212.863 242.384C212.527 242.085 212.251 241.721 212.037 241.292C211.831 240.863 211.729 240.34 211.729 239.724C211.729 239.173 211.841 238.646 212.065 238.142C212.298 237.638 212.629 237.195 213.059 236.812C213.497 236.429 214.034 236.126 214.669 235.902C215.313 235.669 216.045 235.552 216.867 235.552C217.809 235.552 218.659 235.701 219.415 236C220.18 236.299 220.833 236.709 221.375 237.232L220.773 238.226Z" fill="#1F2430"/>
<path d="M15.824 304.76H10.256V320H7.94V304.76H2.36V302.804H15.824V304.76ZM20.066 307.652C20.954 307.652 21.754 307.8 22.466 308.096C23.178 308.392 23.786 308.812 24.29 309.356C24.794 309.9 25.178 310.56 25.442 311.336C25.714 312.104 25.85 312.964 25.85 313.916C25.85 314.876 25.714 315.74 25.442 316.508C25.178 317.276 24.794 317.932 24.29 318.476C23.786 319.02 23.178 319.44 22.466 319.736C21.754 320.024 20.954 320.168 20.066 320.168C19.17 320.168 18.362 320.024 17.642 319.736C16.93 319.44 16.322 319.02 15.818 318.476C15.314 317.932 14.926 317.276 14.654 316.508C14.39 315.74 14.258 314.876 14.258 313.916C14.258 312.964 14.39 312.104 14.654 311.336C14.926 310.56 15.314 309.9 15.818 309.356C16.322 308.812 16.93 308.392 17.642 308.096C18.362 307.8 19.17 307.652 20.066 307.652ZM20.066 318.5C21.266 318.5 22.162 318.1 22.754 317.3C23.346 316.492 23.642 315.368 23.642 313.928C23.642 312.48 23.346 311.352 22.754 310.544C22.162 309.736 21.266 309.332 20.066 309.332C19.458 309.332 18.926 309.436 18.47 309.644C18.022 309.852 17.646 310.152 17.342 310.544C17.046 310.936 16.822 311.42 16.67 311.996C16.526 312.564 16.454 313.208 16.454 313.928C16.454 315.368 16.75 316.492 17.342 317.3C17.942 318.1 18.85 318.5 20.066 318.5ZM32.0803 320.192C31.1203 320.192 30.3803 319.924 29.8603 319.388C29.3483 318.852 29.0923 318.08 29.0923 317.072V309.632H27.6283C27.5003 309.632 27.3923 309.596 27.3043 309.524C27.2163 309.444 27.1723 309.324 27.1723 309.164V308.312L29.1643 308.06L29.6562 304.304C29.6803 304.184 29.7323 304.088 29.8123 304.016C29.9003 303.936 30.0123 303.896 30.1483 303.896H31.2283V308.084H34.7443V309.632H31.2283V316.928C31.2283 317.44 31.3523 317.82 31.6003 318.068C31.8483 318.316 32.1683 318.44 32.5603 318.44C32.7843 318.44 32.9763 318.412 33.1363 318.356C33.3043 318.292 33.4483 318.224 33.5683 318.152C33.6883 318.08 33.7883 318.016 33.8683 317.96C33.9563 317.896 34.0323 317.864 34.0963 317.864C34.2083 317.864 34.3083 317.932 34.3963 318.068L35.0203 319.088C34.6523 319.432 34.2083 319.704 33.6883 319.904C33.1683 320.096 32.6323 320.192 32.0803 320.192ZM43.5378 314.528C42.5538 314.56 41.7138 314.64 41.0178 314.768C40.3298 314.888 39.7658 315.048 39.3258 315.248C38.8938 315.448 38.5778 315.684 38.3778 315.956C38.1858 316.228 38.0898 316.532 38.0898 316.868C38.0898 317.188 38.1418 317.464 38.2458 317.696C38.3498 317.928 38.4898 318.12 38.6658 318.272C38.8498 318.416 39.0618 318.524 39.3018 318.596C39.5498 318.66 39.8138 318.692 40.0938 318.692C40.4698 318.692 40.8138 318.656 41.1258 318.584C41.4378 318.504 41.7298 318.392 42.0018 318.248C42.2818 318.104 42.5458 317.932 42.7938 317.732C43.0498 317.532 43.2978 317.304 43.5378 317.048V314.528ZM36.6378 309.56C37.3098 308.912 38.0338 308.428 38.8098 308.108C39.5858 307.788 40.4458 307.628 41.3898 307.628C42.0698 307.628 42.6738 307.74 43.2018 307.964C43.7298 308.188 44.1738 308.5 44.5338 308.9C44.8938 309.3 45.1658 309.784 45.3498 310.352C45.5338 310.92 45.6258 311.544 45.6258 312.224V320H44.6778C44.4698 320 44.3098 319.968 44.1978 319.904C44.0858 319.832 43.9978 319.696 43.9338 319.496L43.6938 318.344C43.3738 318.64 43.0618 318.904 42.7578 319.136C42.4538 319.36 42.1338 319.552 41.7978 319.712C41.4618 319.864 41.1018 319.98 40.7178 320.06C40.3418 320.148 39.9218 320.192 39.4578 320.192C38.9858 320.192 38.5418 320.128 38.1258 320C37.7098 319.864 37.3458 319.664 37.0338 319.4C36.7298 319.136 36.4858 318.804 36.3018 318.404C36.1258 317.996 36.0378 317.516 36.0378 316.964C36.0378 316.484 36.1698 316.024 36.4338 315.584C36.6978 315.136 37.1258 314.74 37.7178 314.396C38.3098 314.052 39.0818 313.772 40.0338 313.556C40.9858 313.332 42.1538 313.204 43.5378 313.172V312.224C43.5378 311.28 43.3338 310.568 42.9258 310.088C42.5178 309.6 41.9218 309.356 41.1378 309.356C40.6098 309.356 40.1658 309.424 39.8058 309.56C39.4538 309.688 39.1458 309.836 38.8818 310.004C38.6258 310.164 38.4018 310.312 38.2098 310.448C38.0258 310.576 37.8418 310.64 37.6578 310.64C37.5138 310.64 37.3898 310.604 37.2858 310.532C37.1818 310.452 37.0938 310.356 37.0218 310.244L36.6378 309.56ZM51.0875 302.324V320H48.9515V302.324H51.0875ZM67.28 314.528C66.296 314.56 65.456 314.64 64.76 314.768C64.072 314.888 63.508 315.048 63.068 315.248C62.636 315.448 62.32 315.684 62.12 315.956C61.928 316.228 61.832 316.532 61.832 316.868C61.832 317.188 61.884 317.464 61.988 317.696C62.092 317.928 62.232 318.12 62.408 318.272C62.592 318.416 62.804 318.524 63.044 318.596C63.292 318.66 63.556 318.692 63.836 318.692C64.212 318.692 64.556 318.656 64.868 318.584C65.18 318.504 65.472 318.392 65.744 318.248C66.024 318.104 66.288 317.932 66.536 317.732C66.792 317.532 67.04 317.304 67.28 317.048V314.528ZM60.38 309.56C61.052 308.912 61.776 308.428 62.552 308.108C63.328 307.788 64.188 307.628 65.132 307.628C65.812 307.628 66.416 307.74 66.944 307.964C67.472 308.188 67.916 308.5 68.276 308.9C68.636 309.3 68.908 309.784 69.092 310.352C69.276 310.92 69.368 311.544 69.368 312.224V320H68.42C68.212 320 68.052 319.968 67.94 319.904C67.828 319.832 67.74 319.696 67.676 319.496L67.436 318.344C67.116 318.64 66.804 318.904 66.5 319.136C66.196 319.36 65.876 319.552 65.54 319.712C65.204 319.864 64.844 319.98 64.46 320.06C64.084 320.148 63.664 320.192 63.2 320.192C62.728 320.192 62.284 320.128 61.868 320C61.452 319.864 61.088 319.664 60.776 319.4C60.472 319.136 60.228 318.804 60.044 318.404C59.868 317.996 59.78 317.516 59.78 316.964C59.78 316.484 59.912 316.024 60.176 315.584C60.44 315.136 60.868 314.74 61.46 314.396C62.052 314.052 62.824 313.772 63.776 313.556C64.728 313.332 65.896 313.204 67.28 313.172V312.224C67.28 311.28 67.076 310.568 66.668 310.088C66.26 309.6 65.664 309.356 64.88 309.356C64.352 309.356 63.908 309.424 63.548 309.56C63.196 309.688 62.888 309.836 62.624 310.004C62.368 310.164 62.144 310.312 61.952 310.448C61.768 310.576 61.584 310.64 61.4 310.64C61.256 310.64 61.132 310.604 61.028 310.532C60.924 310.452 60.836 310.356 60.764 310.244L60.38 309.56ZM72.6217 320V307.844H73.9057C74.2097 307.844 74.3977 307.992 74.4697 308.288L74.6257 309.536C75.0737 308.984 75.5777 308.532 76.1377 308.18C76.6977 307.828 77.3457 307.652 78.0817 307.652C78.8977 307.652 79.5577 307.88 80.0617 308.336C80.5737 308.792 80.9417 309.408 81.1657 310.184C81.3417 309.744 81.5657 309.364 81.8377 309.044C82.1177 308.724 82.4297 308.46 82.7737 308.252C83.1177 308.044 83.4817 307.892 83.8657 307.796C84.2577 307.7 84.6537 307.652 85.0537 307.652C85.6937 307.652 86.2617 307.756 86.7577 307.964C87.2617 308.164 87.6857 308.46 88.0297 308.852C88.3817 309.244 88.6497 309.728 88.8337 310.304C89.0177 310.872 89.1097 311.524 89.1097 312.26V320H86.9617V312.26C86.9617 311.308 86.7537 310.588 86.3377 310.1C85.9217 309.604 85.3217 309.356 84.5377 309.356C84.1857 309.356 83.8497 309.42 83.5297 309.548C83.2177 309.668 82.9417 309.848 82.7017 310.088C82.4617 310.328 82.2697 310.632 82.1257 311C81.9897 311.36 81.9217 311.78 81.9217 312.26V320H79.7737V312.26C79.7737 311.284 79.5777 310.556 79.1857 310.076C78.7937 309.596 78.2217 309.356 77.4697 309.356C76.9417 309.356 76.4537 309.5 76.0057 309.788C75.5577 310.068 75.1457 310.452 74.7697 310.94V320H72.6217ZM97.4801 307.652C98.3681 307.652 99.1681 307.8 99.8801 308.096C100.592 308.392 101.2 308.812 101.704 309.356C102.208 309.9 102.592 310.56 102.856 311.336C103.128 312.104 103.264 312.964 103.264 313.916C103.264 314.876 103.128 315.74 102.856 316.508C102.592 317.276 102.208 317.932 101.704 318.476C101.2 319.02 100.592 319.44 99.8801 319.736C99.1681 320.024 98.3681 320.168 97.4801 320.168C96.5841 320.168 95.7761 320.024 95.0561 319.736C94.3441 319.44 93.7361 319.02 93.2321 318.476C92.7281 317.932 92.3401 317.276 92.0681 316.508C91.8041 315.74 91.6721 314.876 91.6721 313.916C91.6721 312.964 91.8041 312.104 92.0681 311.336C92.3401 310.56 92.7281 309.9 93.2321 309.356C93.7361 308.812 94.3441 308.392 95.0561 308.096C95.7761 307.8 96.5841 307.652 97.4801 307.652ZM97.4801 318.5C98.6801 318.5 99.5761 318.1 100.168 317.3C100.76 316.492 101.056 315.368 101.056 313.928C101.056 312.48 100.76 311.352 100.168 310.544C99.5761 309.736 98.6801 309.332 97.4801 309.332C96.8721 309.332 96.3401 309.436 95.8841 309.644C95.4361 309.852 95.0601 310.152 94.7561 310.544C94.4601 310.936 94.2361 311.42 94.0841 311.996C93.9401 312.564 93.8681 313.208 93.8681 313.928C93.8681 315.368 94.1641 316.492 94.7561 317.3C95.3561 318.1 96.2641 318.5 97.4801 318.5ZM115.969 307.844V320H114.697C114.393 320 114.201 319.852 114.121 319.556L113.953 318.248C113.425 318.832 112.833 319.304 112.177 319.664C111.521 320.016 110.769 320.192 109.921 320.192C109.257 320.192 108.669 320.084 108.157 319.868C107.653 319.644 107.229 319.332 106.885 318.932C106.541 318.532 106.281 318.048 106.105 317.48C105.937 316.912 105.853 316.284 105.853 315.596V307.844H107.989V315.596C107.989 316.516 108.197 317.228 108.613 317.732C109.037 318.236 109.681 318.488 110.545 318.488C111.177 318.488 111.765 318.34 112.309 318.044C112.861 317.74 113.369 317.324 113.833 316.796V307.844H115.969ZM121.372 309.608C121.636 309.312 121.916 309.044 122.212 308.804C122.508 308.564 122.82 308.36 123.148 308.192C123.484 308.016 123.836 307.884 124.204 307.796C124.58 307.7 124.984 307.652 125.416 307.652C126.08 307.652 126.664 307.764 127.168 307.988C127.68 308.204 128.104 308.516 128.44 308.924C128.784 309.324 129.044 309.808 129.22 310.376C129.396 310.944 129.484 311.572 129.484 312.26V320H127.336V312.26C127.336 311.34 127.124 310.628 126.7 310.124C126.284 309.612 125.648 309.356 124.792 309.356C124.16 309.356 123.568 309.508 123.016 309.812C122.472 310.116 121.968 310.528 121.504 311.048V320H119.356V307.844H120.64C120.944 307.844 121.132 307.992 121.204 308.288L121.372 309.608ZM136.307 320.192C135.347 320.192 134.607 319.924 134.087 319.388C133.575 318.852 133.319 318.08 133.319 317.072V309.632H131.855C131.727 309.632 131.619 309.596 131.531 309.524C131.443 309.444 131.399 309.324 131.399 309.164V308.312L133.391 308.06L133.883 304.304C133.907 304.184 133.959 304.088 134.039 304.016C134.127 303.936 134.239 303.896 134.375 303.896H135.455V308.084H138.971V309.632H135.455V316.928C135.455 317.44 135.579 317.82 135.827 318.068C136.075 318.316 136.395 318.44 136.787 318.44C137.011 318.44 137.203 318.412 137.363 318.356C137.531 318.292 137.675 318.224 137.795 318.152C137.915 318.08 138.015 318.016 138.095 317.96C138.183 317.896 138.259 317.864 138.323 317.864C138.435 317.864 138.535 317.932 138.623 318.068L139.247 319.088C138.879 319.432 138.435 319.704 137.915 319.904C137.395 320.096 136.859 320.192 136.307 320.192ZM156.617 305.492C156.545 305.612 156.465 305.704 156.377 305.768C156.297 305.824 156.197 305.852 156.077 305.852C155.941 305.852 155.781 305.784 155.597 305.648C155.413 305.512 155.181 305.364 154.901 305.204C154.629 305.036 154.297 304.884 153.905 304.748C153.521 304.612 153.053 304.544 152.501 304.544C151.981 304.544 151.521 304.616 151.121 304.76C150.729 304.896 150.397 305.084 150.125 305.324C149.861 305.564 149.661 305.848 149.525 306.176C149.389 306.496 149.321 306.844 149.321 307.22C149.321 307.7 149.437 308.1 149.669 308.42C149.909 308.732 150.221 309 150.605 309.224C150.997 309.448 151.437 309.644 151.925 309.812C152.421 309.972 152.925 310.14 153.437 310.316C153.957 310.492 154.461 310.692 154.949 310.916C155.445 311.132 155.885 311.408 156.269 311.744C156.661 312.08 156.973 312.492 157.205 312.98C157.445 313.468 157.565 314.068 157.565 314.78C157.565 315.532 157.437 316.24 157.181 316.904C156.925 317.56 156.549 318.132 156.053 318.62C155.565 319.108 154.961 319.492 154.241 319.772C153.529 320.052 152.717 320.192 151.805 320.192C150.685 320.192 149.669 319.992 148.757 319.592C147.845 319.184 147.065 318.636 146.417 317.948L147.089 316.844C147.153 316.756 147.229 316.684 147.317 316.628C147.413 316.564 147.517 316.532 147.629 316.532C147.733 316.532 147.849 316.576 147.977 316.664C148.113 316.744 148.265 316.848 148.433 316.976C148.601 317.104 148.793 317.244 149.009 317.396C149.225 317.548 149.469 317.688 149.741 317.816C150.021 317.944 150.337 318.052 150.689 318.14C151.041 318.22 151.437 318.26 151.877 318.26C152.429 318.26 152.921 318.184 153.353 318.032C153.785 317.88 154.149 317.668 154.445 317.396C154.749 317.116 154.981 316.784 155.141 316.4C155.301 316.016 155.381 315.588 155.381 315.116C155.381 314.596 155.261 314.172 155.021 313.844C154.789 313.508 154.481 313.228 154.097 313.004C153.713 312.78 153.273 312.592 152.777 312.44C152.281 312.28 151.777 312.12 151.265 311.96C150.753 311.792 150.249 311.6 149.753 311.384C149.257 311.168 148.817 310.888 148.433 310.544C148.049 310.2 147.737 309.772 147.497 309.26C147.265 308.74 147.149 308.1 147.149 307.34C147.149 306.732 147.265 306.144 147.497 305.576C147.737 305.008 148.081 304.504 148.529 304.064C148.985 303.624 149.541 303.272 150.197 303.008C150.861 302.744 151.621 302.612 152.477 302.612C153.437 302.612 154.309 302.764 155.093 303.068C155.885 303.372 156.581 303.812 157.181 304.388L156.617 305.492ZM162.238 317.072C162.63 317.6 163.058 317.972 163.522 318.188C163.986 318.404 164.506 318.512 165.082 318.512C166.218 318.512 167.09 318.108 167.698 317.3C168.306 316.492 168.61 315.34 168.61 313.844C168.61 313.052 168.538 312.372 168.394 311.804C168.258 311.236 168.058 310.772 167.794 310.412C167.53 310.044 167.206 309.776 166.822 309.608C166.438 309.44 166.002 309.356 165.514 309.356C164.818 309.356 164.206 309.516 163.678 309.836C163.158 310.156 162.678 310.608 162.238 311.192V317.072ZM162.13 309.728C162.642 309.096 163.234 308.588 163.906 308.204C164.578 307.82 165.346 307.628 166.21 307.628C166.914 307.628 167.55 307.764 168.118 308.036C168.686 308.3 169.17 308.696 169.57 309.224C169.97 309.744 170.278 310.392 170.494 311.168C170.71 311.944 170.818 312.836 170.818 313.844C170.818 314.74 170.698 315.576 170.458 316.352C170.218 317.12 169.87 317.788 169.414 318.356C168.966 318.916 168.414 319.36 167.758 319.688C167.11 320.008 166.378 320.168 165.562 320.168C164.818 320.168 164.178 320.044 163.642 319.796C163.114 319.54 162.646 319.188 162.238 318.74V324.116H160.09V307.844H161.374C161.678 307.844 161.866 307.992 161.938 308.288L162.13 309.728ZM181.68 312.596C181.68 312.1 181.608 311.648 181.464 311.24C181.328 310.824 181.124 310.468 180.852 310.172C180.588 309.868 180.264 309.636 179.88 309.476C179.496 309.308 179.06 309.224 178.572 309.224C177.548 309.224 176.736 309.524 176.136 310.124C175.544 310.716 175.176 311.54 175.032 312.596H181.68ZM183.408 318.296C183.144 318.616 182.828 318.896 182.46 319.136C182.092 319.368 181.696 319.56 181.272 319.712C180.856 319.864 180.424 319.976 179.976 320.048C179.528 320.128 179.084 320.168 178.644 320.168C177.804 320.168 177.028 320.028 176.316 319.748C175.612 319.46 175 319.044 174.48 318.5C173.968 317.948 173.568 317.268 173.28 316.46C172.992 315.652 172.848 314.724 172.848 313.676C172.848 312.828 172.976 312.036 173.232 311.3C173.496 310.564 173.872 309.928 174.36 309.392C174.848 308.848 175.444 308.424 176.148 308.12C176.852 307.808 177.644 307.652 178.524 307.652C179.252 307.652 179.924 307.776 180.54 308.024C181.164 308.264 181.7 308.616 182.148 309.08C182.604 309.536 182.96 310.104 183.216 310.784C183.472 311.456 183.6 312.224 183.6 313.088C183.6 313.424 183.564 313.648 183.492 313.76C183.42 313.872 183.284 313.928 183.084 313.928H174.96C174.984 314.696 175.088 315.364 175.272 315.932C175.464 316.5 175.728 316.976 176.064 317.36C176.4 317.736 176.8 318.02 177.264 318.212C177.728 318.396 178.248 318.488 178.824 318.488C179.36 318.488 179.82 318.428 180.204 318.308C180.596 318.18 180.932 318.044 181.212 317.9C181.492 317.756 181.724 317.624 181.908 317.504C182.1 317.376 182.264 317.312 182.4 317.312C182.576 317.312 182.712 317.38 182.808 317.516L183.408 318.296ZM188.239 309.608C188.503 309.312 188.783 309.044 189.079 308.804C189.375 308.564 189.687 308.36 190.015 308.192C190.351 308.016 190.703 307.884 191.071 307.796C191.447 307.7 191.851 307.652 192.283 307.652C192.947 307.652 193.531 307.764 194.035 307.988C194.547 308.204 194.971 308.516 195.307 308.924C195.651 309.324 195.911 309.808 196.087 310.376C196.263 310.944 196.351 311.572 196.351 312.26V320H194.203V312.26C194.203 311.34 193.991 310.628 193.567 310.124C193.151 309.612 192.515 309.356 191.659 309.356C191.027 309.356 190.435 309.508 189.883 309.812C189.339 310.116 188.835 310.528 188.371 311.048V320H186.223V307.844H187.507C187.811 307.844 187.999 307.992 188.071 308.288L188.239 309.608ZM203.174 320.192C202.214 320.192 201.474 319.924 200.954 319.388C200.442 318.852 200.186 318.08 200.186 317.072V309.632H198.722C198.594 309.632 198.486 309.596 198.398 309.524C198.31 309.444 198.266 309.324 198.266 309.164V308.312L200.258 308.06L200.75 304.304C200.774 304.184 200.826 304.088 200.906 304.016C200.994 303.936 201.106 303.896 201.242 303.896H202.322V308.084H205.838V309.632H202.322V316.928C202.322 317.44 202.446 317.82 202.694 318.068C202.942 318.316 203.262 318.44 203.654 318.44C203.878 318.44 204.07 318.412 204.23 318.356C204.398 318.292 204.542 318.224 204.662 318.152C204.782 318.08 204.882 318.016 204.962 317.96C205.05 317.896 205.126 317.864 205.19 317.864C205.302 317.864 205.402 317.932 205.49 318.068L206.114 319.088C205.746 319.432 205.302 319.704 204.782 319.904C204.262 320.096 203.726 320.192 203.174 320.192Z" fill="#1F2430"/>
<path d="M10.412 353.656H7.952L7.34 356.968H9.8L10.412 353.656ZM15.572 351.52L15.356 352.756C15.292 353.06 15.164 353.288 14.972 353.44C14.78 353.584 14.472 353.656 14.048 353.656H12.848L12.236 356.968H13.928C14.232 356.968 14.448 357.06 14.576 357.244C14.712 357.42 14.748 357.728 14.684 358.168L14.528 359.104H11.924L11.012 364H9.644C9.508 364 9.38 363.968 9.26 363.904C9.14 363.84 9.04 363.752 8.96 363.64C8.88 363.528 8.82 363.4 8.78 363.256C8.748 363.104 8.752 362.944 8.792 362.776L9.488 359.104H7.04L6.332 362.92C6.268 363.304 6.108 363.58 5.852 363.748C5.596 363.916 5.312 364 5 364H3.68L4.592 359.104H3.212C2.908 359.104 2.692 359.016 2.564 358.84C2.436 358.656 2.404 358.348 2.468 357.916L2.624 356.968H4.904L5.516 353.656H2.948L3.176 352.42C3.24 352.116 3.368 351.892 3.56 351.748C3.752 351.596 4.06 351.52 4.484 351.52H5.828L6.56 347.656C6.624 347.336 6.772 347.088 7.004 346.912C7.236 346.736 7.508 346.648 7.82 346.648H9.176L8.252 351.52H10.712L11.636 346.648H12.956C13.26 346.648 13.504 346.748 13.688 346.948C13.872 347.14 13.94 347.384 13.892 347.68L13.16 351.52H15.572ZM28.3419 361.78V364H18.7419V361.78H22.2579V351.664C22.2579 351.264 22.2699 350.852 22.2939 350.428L19.7979 352.516C19.6539 352.628 19.5099 352.7 19.3659 352.732C19.2299 352.756 19.0979 352.756 18.9699 352.732C18.8499 352.708 18.7419 352.668 18.6459 352.612C18.5499 352.548 18.4779 352.48 18.4299 352.408L17.4939 351.124L22.7859 346.624H25.2219V361.78H28.3419ZM41.6158 361.24C41.9358 361.24 42.1878 361.332 42.3718 361.516C42.5638 361.692 42.6598 361.928 42.6598 362.224V364H30.7558V363.016C30.7558 362.816 30.7958 362.608 30.8758 362.392C30.9638 362.168 31.0998 361.968 31.2838 361.792L36.5518 356.512C36.9918 356.064 37.3838 355.636 37.7278 355.228C38.0798 354.82 38.3718 354.416 38.6038 354.016C38.8358 353.616 39.0118 353.212 39.1318 352.804C39.2598 352.388 39.3238 351.952 39.3238 351.496C39.3238 351.08 39.2638 350.716 39.1438 350.404C39.0238 350.084 38.8518 349.816 38.6278 349.6C38.4118 349.384 38.1478 349.224 37.8358 349.12C37.5318 349.008 37.1878 348.952 36.8038 348.952C36.4518 348.952 36.1238 349.004 35.8198 349.108C35.5238 349.204 35.2598 349.344 35.0278 349.528C34.7958 349.704 34.5998 349.912 34.4398 350.152C34.2798 350.392 34.1598 350.656 34.0798 350.944C33.9438 351.312 33.7678 351.556 33.5518 351.676C33.3358 351.796 33.0238 351.824 32.6158 351.76L31.0558 351.484C31.1758 350.652 31.4078 349.924 31.7518 349.3C32.0958 348.668 32.5238 348.144 33.0358 347.728C33.5558 347.304 34.1478 346.988 34.8118 346.78C35.4838 346.564 36.2038 346.456 36.9718 346.456C37.7718 346.456 38.5038 346.576 39.1678 346.816C39.8318 347.048 40.3998 347.38 40.8718 347.812C41.3438 348.244 41.7118 348.764 41.9758 349.372C42.2398 349.98 42.3718 350.656 42.3718 351.4C42.3718 352.04 42.2758 352.632 42.0838 353.176C41.8998 353.72 41.6478 354.24 41.3278 354.736C41.0158 355.232 40.6478 355.712 40.2238 356.176C39.7998 356.64 39.3558 357.112 38.8918 357.592L34.9798 361.588C35.3558 361.476 35.7278 361.392 36.0958 361.336C36.4718 361.272 36.8278 361.24 37.1638 361.24H41.6158ZM45.0616 351.484C45.1816 350.652 45.4136 349.924 45.7576 349.3C46.1016 348.668 46.5296 348.144 47.0416 347.728C47.5616 347.304 48.1536 346.988 48.8176 346.78C49.4896 346.564 50.2096 346.456 50.9776 346.456C51.7776 346.456 52.4976 346.572 53.1376 346.804C53.7856 347.028 54.3376 347.344 54.7936 347.752C55.2496 348.152 55.5976 348.624 55.8376 349.168C56.0856 349.712 56.2096 350.3 56.2096 350.932C56.2096 351.484 56.1456 351.972 56.0176 352.396C55.8976 352.812 55.7216 353.176 55.4896 353.488C55.2576 353.8 54.9696 354.064 54.6256 354.28C54.2816 354.496 53.8936 354.676 53.4616 354.82C54.5016 355.148 55.2776 355.648 55.7896 356.32C56.3016 356.992 56.5576 357.836 56.5576 358.852C56.5576 359.716 56.3976 360.48 56.0776 361.144C55.7576 361.808 55.3256 362.368 54.7816 362.824C54.2376 363.272 53.6056 363.612 52.8856 363.844C52.1736 364.076 51.4176 364.192 50.6176 364.192C49.7456 364.192 48.9856 364.092 48.3376 363.892C47.6896 363.692 47.1256 363.396 46.6456 363.004C46.1656 362.612 45.7576 362.132 45.4216 361.564C45.0856 360.996 44.7976 360.34 44.5576 359.596L45.8656 359.056C46.2096 358.912 46.5296 358.876 46.8256 358.948C47.1296 359.012 47.3496 359.172 47.4856 359.428C47.6296 359.708 47.7856 359.984 47.9536 360.256C48.1296 360.528 48.3376 360.772 48.5776 360.988C48.8176 361.196 49.0976 361.368 49.4176 361.504C49.7456 361.632 50.1336 361.696 50.5816 361.696C51.0856 361.696 51.5256 361.616 51.9016 361.456C52.2776 361.288 52.5896 361.072 52.8376 360.808C53.0936 360.544 53.2816 360.252 53.4016 359.932C53.5296 359.604 53.5936 359.276 53.5936 358.948C53.5936 358.532 53.5496 358.156 53.4616 357.82C53.3736 357.476 53.1896 357.184 52.9096 356.944C52.6296 356.704 52.2256 356.516 51.6976 356.38C51.1776 356.244 50.4776 356.176 49.5976 356.176V354.064C50.3256 354.056 50.9296 353.988 51.4096 353.86C51.8896 353.732 52.2696 353.556 52.5496 353.332C52.8376 353.1 53.0376 352.824 53.1496 352.504C53.2616 352.184 53.3176 351.832 53.3176 351.448C53.3176 350.632 53.0896 350.012 52.6336 349.588C52.1776 349.164 51.5696 348.952 50.8096 348.952C50.4576 348.952 50.1336 349.004 49.8376 349.108C49.5416 349.204 49.2736 349.344 49.0336 349.528C48.8016 349.704 48.6056 349.912 48.4456 350.152C48.2856 350.392 48.1656 350.656 48.0856 350.944C47.9496 351.312 47.7696 351.556 47.5456 351.676C47.3296 351.796 47.0216 351.824 46.6216 351.76L45.0616 351.484ZM59.1035 366.94C58.9595 366.82 58.8875 366.672 58.8875 366.496C58.8875 366.432 58.9075 366.36 58.9475 366.28C58.9955 366.2 59.0515 366.128 59.1155 366.064C59.2035 365.968 59.3115 365.848 59.4395 365.704C59.5675 365.568 59.6955 365.408 59.8235 365.224C59.9515 365.048 60.0675 364.852 60.1715 364.636C60.2835 364.428 60.3675 364.204 60.4235 363.964C60.1675 363.964 59.9355 363.92 59.7275 363.832C59.5195 363.736 59.3395 363.608 59.1875 363.448C59.0435 363.288 58.9275 363.1 58.8395 362.884C58.7595 362.668 58.7195 362.432 58.7195 362.176C58.7195 361.952 58.7595 361.744 58.8395 361.552C58.9275 361.352 59.0475 361.18 59.1995 361.036C59.3515 360.884 59.5355 360.768 59.7515 360.688C59.9675 360.6 60.2035 360.556 60.4595 360.556C60.7635 360.556 61.0275 360.612 61.2515 360.724C61.4835 360.828 61.6715 360.976 61.8155 361.168C61.9675 361.352 62.0795 361.568 62.1515 361.816C62.2315 362.056 62.2715 362.312 62.2715 362.584C62.2715 362.968 62.2115 363.372 62.0915 363.796C61.9795 364.22 61.8115 364.644 61.5875 365.068C61.3635 365.492 61.0835 365.904 60.7475 366.304C60.4195 366.704 60.0435 367.072 59.6195 367.408L59.1035 366.94ZM71.8565 357.46V351.784C71.8565 351.248 71.8925 350.656 71.9645 350.008L66.5765 357.46H71.8565ZM76.6205 357.46V359.176C76.6205 359.336 76.5685 359.476 76.4645 359.596C76.3605 359.708 76.2125 359.764 76.0205 359.764H74.4365V364H71.8565V359.764H64.5365C64.3365 359.764 64.1605 359.704 64.0085 359.584C63.8565 359.456 63.7605 359.3 63.7205 359.116L63.4085 357.616L71.6285 346.636H74.4365V357.46H76.6205ZM85.7784 357.46V351.784C85.7784 351.248 85.8144 350.656 85.8864 350.008L80.4984 357.46H85.7784ZM90.5424 357.46V359.176C90.5424 359.336 90.4904 359.476 90.3864 359.596C90.2824 359.708 90.1344 359.764 89.9424 359.764H88.3584V364H85.7784V359.764H78.4584C78.2584 359.764 78.0824 359.704 77.9304 359.584C77.7784 359.456 77.6824 359.3 77.6424 359.116L77.3304 357.616L85.5504 346.636H88.3584V357.46H90.5424ZM97.4203 352.948L96.8203 353.692C97.1563 353.524 97.5163 353.396 97.9003 353.308C98.2923 353.212 98.7123 353.164 99.1603 353.164C99.8163 353.164 100.452 353.272 101.068 353.488C101.692 353.704 102.24 354.032 102.712 354.472C103.184 354.904 103.564 355.444 103.852 356.092C104.14 356.74 104.284 357.496 104.284 358.36C104.284 359.168 104.136 359.928 103.84 360.64C103.544 361.344 103.128 361.96 102.592 362.488C102.056 363.016 101.408 363.432 100.648 363.736C99.8963 364.04 99.0643 364.192 98.1523 364.192C97.2243 364.192 96.3923 364.044 95.6563 363.748C94.9203 363.452 94.2923 363.04 93.7723 362.512C93.2523 361.976 92.8523 361.336 92.5723 360.592C92.3003 359.84 92.1643 359.008 92.1643 358.096C92.1643 357.28 92.3283 356.444 92.6562 355.588C92.9923 354.724 93.5083 353.828 94.2043 352.9L98.3443 347.344C98.4883 347.152 98.6963 346.988 98.9683 346.852C99.2483 346.716 99.5683 346.648 99.9283 346.648H102.568L97.4203 352.948ZM98.0923 361.768C98.5643 361.768 98.9963 361.688 99.3883 361.528C99.7883 361.368 100.128 361.144 100.408 360.856C100.696 360.568 100.92 360.232 101.08 359.848C101.24 359.456 101.32 359.032 101.32 358.576C101.32 358.08 101.244 357.636 101.092 357.244C100.94 356.844 100.724 356.508 100.444 356.236C100.164 355.956 99.8283 355.744 99.4363 355.6C99.0443 355.456 98.6123 355.384 98.1403 355.384C97.6683 355.384 97.2403 355.464 96.8563 355.624C96.4723 355.784 96.1443 356.008 95.8723 356.296C95.6003 356.576 95.3883 356.912 95.2363 357.304C95.0843 357.688 95.0083 358.104 95.0083 358.552C95.0083 359.032 95.0723 359.472 95.2003 359.872C95.3363 360.264 95.5323 360.6 95.7883 360.88C96.0523 361.16 96.3763 361.38 96.7603 361.54C97.1443 361.692 97.5883 361.768 98.0923 361.768ZM106.494 366.94C106.35 366.82 106.278 366.672 106.278 366.496C106.278 366.432 106.298 366.36 106.338 366.28C106.386 366.2 106.442 366.128 106.506 366.064C106.594 365.968 106.702 365.848 106.83 365.704C106.958 365.568 107.086 365.408 107.214 365.224C107.342 365.048 107.458 364.852 107.562 364.636C107.674 364.428 107.758 364.204 107.814 363.964C107.558 363.964 107.326 363.92 107.118 363.832C106.91 363.736 106.73 363.608 106.578 363.448C106.434 363.288 106.318 363.1 106.23 362.884C106.15 362.668 106.11 362.432 106.11 362.176C106.11 361.952 106.15 361.744 106.23 361.552C106.318 361.352 106.438 361.18 106.59 361.036C106.742 360.884 106.926 360.768 107.142 360.688C107.358 360.6 107.594 360.556 107.85 360.556C108.154 360.556 108.418 360.612 108.642 360.724C108.874 360.828 109.062 360.976 109.206 361.168C109.358 361.352 109.47 361.568 109.542 361.816C109.622 362.056 109.662 362.312 109.662 362.584C109.662 362.968 109.602 363.372 109.482 363.796C109.37 364.22 109.202 364.644 108.978 365.068C108.754 365.492 108.474 365.904 108.138 366.304C107.81 366.704 107.434 367.072 107.01 367.408L106.494 366.94ZM111.999 351.484C112.119 350.652 112.351 349.924 112.695 349.3C113.039 348.668 113.467 348.144 113.979 347.728C114.499 347.304 115.091 346.988 115.755 346.78C116.427 346.564 117.147 346.456 117.915 346.456C118.715 346.456 119.435 346.572 120.075 346.804C120.723 347.028 121.275 347.344 121.731 347.752C122.187 348.152 122.535 348.624 122.775 349.168C123.023 349.712 123.147 350.3 123.147 350.932C123.147 351.484 123.083 351.972 122.955 352.396C122.835 352.812 122.659 353.176 122.427 353.488C122.195 353.8 121.907 354.064 121.563 354.28C121.219 354.496 120.831 354.676 120.399 354.82C121.439 355.148 122.215 355.648 122.727 356.32C123.239 356.992 123.495 357.836 123.495 358.852C123.495 359.716 123.335 360.48 123.015 361.144C122.695 361.808 122.263 362.368 121.719 362.824C121.175 363.272 120.543 363.612 119.823 363.844C119.111 364.076 118.355 364.192 117.555 364.192C116.683 364.192 115.923 364.092 115.275 363.892C114.627 363.692 114.063 363.396 113.583 363.004C113.103 362.612 112.695 362.132 112.359 361.564C112.023 360.996 111.735 360.34 111.495 359.596L112.803 359.056C113.147 358.912 113.467 358.876 113.763 358.948C114.067 359.012 114.287 359.172 114.423 359.428C114.567 359.708 114.723 359.984 114.891 360.256C115.067 360.528 115.275 360.772 115.515 360.988C115.755 361.196 116.035 361.368 116.355 361.504C116.683 361.632 117.071 361.696 117.519 361.696C118.023 361.696 118.463 361.616 118.839 361.456C119.215 361.288 119.527 361.072 119.775 360.808C120.031 360.544 120.219 360.252 120.339 359.932C120.467 359.604 120.531 359.276 120.531 358.948C120.531 358.532 120.487 358.156 120.399 357.82C120.311 357.476 120.127 357.184 119.847 356.944C119.567 356.704 119.163 356.516 118.635 356.38C118.115 356.244 117.415 356.176 116.535 356.176V354.064C117.263 354.056 117.867 353.988 118.347 353.86C118.827 353.732 119.207 353.556 119.487 353.332C119.775 353.1 119.975 352.824 120.087 352.504C120.199 352.184 120.255 351.832 120.255 351.448C120.255 350.632 120.027 350.012 119.571 349.588C119.115 349.164 118.507 348.952 117.747 348.952C117.395 348.952 117.071 349.004 116.775 349.108C116.479 349.204 116.211 349.344 115.971 349.528C115.739 349.704 115.543 349.912 115.383 350.152C115.223 350.392 115.103 350.656 115.023 350.944C114.887 351.312 114.707 351.556 114.483 351.676C114.267 351.796 113.959 351.824 113.559 351.76L111.999 351.484ZM125.921 351.484C126.041 350.652 126.273 349.924 126.617 349.3C126.961 348.668 127.389 348.144 127.901 347.728C128.421 347.304 129.013 346.988 129.677 346.78C130.349 346.564 131.069 346.456 131.837 346.456C132.637 346.456 133.357 346.572 133.997 346.804C134.645 347.028 135.197 347.344 135.653 347.752C136.109 348.152 136.457 348.624 136.697 349.168C136.945 349.712 137.069 350.3 137.069 350.932C137.069 351.484 137.005 351.972 136.877 352.396C136.757 352.812 136.581 353.176 136.349 353.488C136.117 353.8 135.829 354.064 135.485 354.28C135.141 354.496 134.753 354.676 134.321 354.82C135.361 355.148 136.137 355.648 136.649 356.32C137.161 356.992 137.417 357.836 137.417 358.852C137.417 359.716 137.257 360.48 136.937 361.144C136.617 361.808 136.185 362.368 135.641 362.824C135.097 363.272 134.465 363.612 133.745 363.844C133.033 364.076 132.277 364.192 131.477 364.192C130.605 364.192 129.845 364.092 129.197 363.892C128.549 363.692 127.985 363.396 127.505 363.004C127.025 362.612 126.617 362.132 126.281 361.564C125.945 360.996 125.657 360.34 125.417 359.596L126.725 359.056C127.069 358.912 127.389 358.876 127.685 358.948C127.989 359.012 128.209 359.172 128.345 359.428C128.489 359.708 128.645 359.984 128.813 360.256C128.989 360.528 129.197 360.772 129.437 360.988C129.677 361.196 129.957 361.368 130.277 361.504C130.605 361.632 130.993 361.696 131.441 361.696C131.945 361.696 132.385 361.616 132.761 361.456C133.137 361.288 133.449 361.072 133.697 360.808C133.953 360.544 134.141 360.252 134.261 359.932C134.389 359.604 134.453 359.276 134.453 358.948C134.453 358.532 134.409 358.156 134.321 357.82C134.233 357.476 134.049 357.184 133.769 356.944C133.489 356.704 133.085 356.516 132.557 356.38C132.037 356.244 131.337 356.176 130.457 356.176V354.064C131.185 354.056 131.789 353.988 132.269 353.86C132.749 353.732 133.129 353.556 133.409 353.332C133.697 353.1 133.897 352.824 134.009 352.504C134.121 352.184 134.177 351.832 134.177 351.448C134.177 350.632 133.949 350.012 133.493 349.588C133.037 349.164 132.429 348.952 131.669 348.952C131.317 348.952 130.993 349.004 130.697 349.108C130.401 349.204 130.133 349.344 129.893 349.528C129.661 349.704 129.465 349.912 129.305 350.152C129.145 350.392 129.025 350.656 128.945 350.944C128.809 351.312 128.629 351.556 128.405 351.676C128.189 351.796 127.881 351.824 127.481 351.76L125.921 351.484ZM150.319 361.24C150.639 361.24 150.891 361.332 151.075 361.516C151.267 361.692 151.363 361.928 151.363 362.224V364H139.459V363.016C139.459 362.816 139.499 362.608 139.579 362.392C139.667 362.168 139.803 361.968 139.987 361.792L145.255 356.512C145.695 356.064 146.087 355.636 146.431 355.228C146.783 354.82 147.075 354.416 147.307 354.016C147.539 353.616 147.715 353.212 147.835 352.804C147.963 352.388 148.027 351.952 148.027 351.496C148.027 351.08 147.967 350.716 147.847 350.404C147.727 350.084 147.555 349.816 147.331 349.6C147.115 349.384 146.851 349.224 146.539 349.12C146.235 349.008 145.891 348.952 145.507 348.952C145.155 348.952 144.827 349.004 144.523 349.108C144.227 349.204 143.963 349.344 143.731 349.528C143.499 349.704 143.303 349.912 143.143 350.152C142.983 350.392 142.863 350.656 142.783 350.944C142.647 351.312 142.471 351.556 142.255 351.676C142.039 351.796 141.727 351.824 141.319 351.76L139.759 351.484C139.879 350.652 140.111 349.924 140.455 349.3C140.799 348.668 141.227 348.144 141.739 347.728C142.259 347.304 142.851 346.988 143.515 346.78C144.187 346.564 144.907 346.456 145.675 346.456C146.475 346.456 147.207 346.576 147.871 346.816C148.535 347.048 149.103 347.38 149.575 347.812C150.047 348.244 150.415 348.764 150.679 349.372C150.943 349.98 151.075 350.656 151.075 351.4C151.075 352.04 150.979 352.632 150.787 353.176C150.603 353.72 150.351 354.24 150.031 354.736C149.719 355.232 149.351 355.712 148.927 356.176C148.503 356.64 148.059 357.112 147.595 357.592L143.683 361.588C144.059 361.476 144.431 361.392 144.799 361.336C145.175 361.272 145.531 361.24 145.867 361.24H150.319Z" fill="#33A97E"/>
<path d="M10.946 390.19C11.042 390.19 11.117 390.22 11.171 390.28C11.225 390.334 11.252 390.406 11.252 390.496V391H3.035V390.694C3.035 390.628 3.05 390.562 3.08 390.496C3.116 390.424 3.161 390.364 3.215 390.316L7.562 385.915C7.922 385.549 8.255 385.195 8.561 384.853C8.867 384.511 9.131 384.166 9.353 383.818C9.581 383.47 9.758 383.113 9.884 382.747C10.01 382.381 10.073 381.991 10.073 381.577C10.073 381.109 9.995 380.704 9.839 380.362C9.683 380.014 9.476 379.729 9.218 379.507C8.96 379.285 8.66 379.12 8.318 379.012C7.976 378.904 7.622 378.85 7.256 378.85C6.854 378.85 6.482 378.913 6.14 379.039C5.804 379.159 5.504 379.33 5.24 379.552C4.982 379.768 4.766 380.029 4.592 380.335C4.424 380.635 4.307 380.965 4.241 381.325C4.199 381.457 4.142 381.544 4.07 381.586C4.004 381.628 3.911 381.643 3.791 381.631L3.35 381.559C3.428 381.013 3.578 380.527 3.8 380.101C4.022 379.675 4.304 379.315 4.646 379.021C4.988 378.727 5.384 378.505 5.834 378.355C6.284 378.199 6.77 378.121 7.292 378.121C7.778 378.121 8.24 378.193 8.678 378.337C9.122 378.475 9.512 378.688 9.848 378.976C10.19 379.258 10.46 379.615 10.658 380.047C10.856 380.473 10.955 380.974 10.955 381.55C10.955 382.03 10.88 382.477 10.73 382.891C10.586 383.299 10.388 383.692 10.136 384.07C9.884 384.448 9.59 384.817 9.254 385.177C8.924 385.531 8.576 385.894 8.21 386.266L4.223 390.334C4.415 390.286 4.613 390.25 4.817 390.226C5.027 390.202 5.237 390.19 5.447 390.19H10.946ZM22.2244 384.628C22.2244 385.744 22.1044 386.71 21.8644 387.526C21.6244 388.342 21.2974 389.017 20.8834 389.551C20.4694 390.085 19.9834 390.484 19.4254 390.748C18.8734 391.006 18.2824 391.135 17.6524 391.135C17.0224 391.135 16.4314 391.006 15.8794 390.748C15.3274 390.484 14.8444 390.085 14.4304 389.551C14.0164 389.017 13.6894 388.342 13.4494 387.526C13.2154 386.71 13.0984 385.744 13.0984 384.628C13.0984 383.512 13.2154 382.546 13.4494 381.73C13.6894 380.914 14.0164 380.239 14.4304 379.705C14.8444 379.171 15.3274 378.775 15.8794 378.517C16.4314 378.253 17.0224 378.121 17.6524 378.121C18.2824 378.121 18.8734 378.253 19.4254 378.517C19.9834 378.775 20.4694 379.171 20.8834 379.705C21.2974 380.239 21.6244 380.914 21.8644 381.73C22.1044 382.546 22.2244 383.512 22.2244 384.628ZM21.3244 384.628C21.3244 383.596 21.2254 382.714 21.0274 381.982C20.8294 381.25 20.5624 380.653 20.2264 380.191C19.8964 379.723 19.5064 379.381 19.0564 379.165C18.6124 378.949 18.1444 378.841 17.6524 378.841C17.1604 378.841 16.6924 378.949 16.2484 379.165C15.8044 379.381 15.4144 379.723 15.0784 380.191C14.7424 380.653 14.4754 381.25 14.2774 381.982C14.0794 382.714 13.9804 383.596 13.9804 384.628C13.9804 385.666 14.0794 386.551 14.2774 387.283C14.4754 388.009 14.7424 388.606 15.0784 389.074C15.4144 389.536 15.8044 389.875 16.2484 390.091C16.6924 390.301 17.1604 390.406 17.6524 390.406C18.1444 390.406 18.6124 390.301 19.0564 390.091C19.5064 389.875 19.8964 389.536 20.2264 389.074C20.5624 388.606 20.8294 388.009 21.0274 387.283C21.2254 386.551 21.3244 385.666 21.3244 384.628ZM31.8558 390.334V391H25.2858V390.334H28.2108V380.002C28.2108 379.798 28.2198 379.582 28.2378 379.354L25.4298 381.847C25.3458 381.919 25.2618 381.946 25.1778 381.928C25.0938 381.91 25.0278 381.874 24.9798 381.82L24.7188 381.46L28.3998 378.211H29.0748V390.334H31.8558ZM38.3552 384.916C38.8652 384.916 39.3212 384.829 39.7232 384.655C40.1252 384.481 40.4612 384.253 40.7312 383.971C41.0072 383.689 41.2172 383.374 41.3612 383.026C41.5052 382.672 41.5772 382.315 41.5772 381.955C41.5772 381.493 41.5022 381.07 41.3522 380.686C41.2022 380.302 40.9922 379.975 40.7222 379.705C40.4522 379.429 40.1312 379.216 39.7592 379.066C39.3932 378.91 38.9912 378.832 38.5532 378.832C38.0792 378.832 37.6472 378.907 37.2572 379.057C36.8672 379.207 36.5312 379.417 36.2492 379.687C35.9732 379.957 35.7572 380.281 35.6012 380.659C35.4452 381.031 35.3672 381.442 35.3672 381.892C35.3672 382.36 35.4362 382.783 35.5742 383.161C35.7182 383.533 35.9192 383.851 36.1772 384.115C36.4412 384.373 36.7562 384.571 37.1222 384.709C37.4942 384.847 37.9052 384.916 38.3552 384.916ZM40.0562 385.744C40.2362 385.486 40.4042 385.246 40.5602 385.024C40.7162 384.796 40.8572 384.574 40.9832 384.358C40.6352 384.748 40.2122 385.051 39.7142 385.267C39.2162 385.477 38.6852 385.582 38.1212 385.582C37.5992 385.582 37.1162 385.498 36.6722 385.33C36.2342 385.156 35.8532 384.91 35.5292 384.592C35.2052 384.274 34.9532 383.893 34.7732 383.449C34.5932 382.999 34.5032 382.498 34.5032 381.946C34.5032 381.4 34.6052 380.896 34.8092 380.434C35.0132 379.966 35.2952 379.561 35.6552 379.219C36.0152 378.877 36.4412 378.61 36.9332 378.418C37.4312 378.22 37.9742 378.121 38.5622 378.121C39.1262 378.121 39.6422 378.217 40.1102 378.409C40.5842 378.601 40.9892 378.874 41.3252 379.228C41.6672 379.576 41.9312 379.996 42.1172 380.488C42.3092 380.974 42.4052 381.517 42.4052 382.117C42.4052 382.447 42.3692 382.762 42.2972 383.062C42.2312 383.362 42.1292 383.662 41.9912 383.962C41.8592 384.262 41.6972 384.571 41.5052 384.889C41.3132 385.201 41.0942 385.537 40.8482 385.897L37.5092 390.793C37.4192 390.931 37.2722 391 37.0682 391H36.2852L40.0562 385.744Z" fill="#1F2430"/>
<path d="M47.6864 16.6911L0 23.8929V182.897H238.646V23.8929L229.216 65.9738L208.641 48.4636H173.707L138.773 19.939L108.768 30.9534L89.3775 1.49902L47.6864 16.6911Z" fill="url(#paint0_linear)" fill-opacity="0.16"/>
<path d="M0.317139 24.2259L46.9364 16.4593L89.5831 1.10303L109.206 30.1567L138.732 20.4132L175.028 48.7966H209.438L229.972 67.2953L238.297 25.0731" stroke="#00945E" stroke-width="0.878059"/>
<ellipse cx="238.235" cy="24.6589" rx="4.76471" ry="6.23529" fill="#00945E"/>
<defs>
<linearGradient id="paint0_linear" x1="119.323" y1="-4.06695" x2="119.323" y2="182.897" gradientUnits="userSpaceOnUse">
<stop stop-color="#00945E"/>
<stop offset="0.75" stop-color="#00945E" stop-opacity="0"/>
</linearGradient>
</defs>
</svg>
