<svg width="251" height="44" viewBox="0 0 251 44" fill="none" xmlns="http://www.w3.org/2000/svg">
<g clip-path="url(#clip0)">
<g clip-path="url(#clip1)">
<line x1="4.92187" y1="7.14752" x2="4.92188" y2="43.3683" stroke="#62666E" stroke-width="1.84375"/>
<line x1="8.60937" y1="12.1435" x2="8.60938" y2="43.3683" stroke="#62666E" stroke-width="1.84375"/>
<line x1="12.2969" y1="4.64954" x2="12.2969" y2="43.3683" stroke="#62666E" stroke-width="1.84375"/>
<line x1="15.9844" y1="10.8944" x2="15.9844" y2="43.3682" stroke="#62666E" stroke-width="1.84375"/>
<line x1="19.6719" y1="7.14752" x2="19.6719" y2="43.3683" stroke="#62666E" stroke-width="1.84375"/>
<line x1="23.3594" y1="4.64954" x2="23.3594" y2="43.3683" stroke="#EBF1EF" stroke-width="1.84375"/>
<line x1="27.0469" y1="8.33704" x2="27.0469" y2="43.3683" stroke="#EBF1EF" stroke-width="1.84375"/>
<line x1="30.7344" y1="10.7953" x2="30.7344" y2="43.3683" stroke="#EBF1EF" stroke-width="1.84375"/>
<line x1="34.4219" y1="4.64954" x2="34.4219" y2="43.3683" stroke="#EBF1EF" stroke-width="1.84375"/>
<line x1="38.1094" y1="10.7953" x2="38.1094" y2="43.3683" stroke="#EBF1EF" stroke-width="1.84375"/>
<line x1="41.7969" y1="7.14752" x2="41.7969" y2="43.3683" stroke="#EBF1EF" stroke-width="1.84375"/>
<line x1="45.4844" y1="4.64954" x2="45.4844" y2="43.3683" stroke="#62666E" stroke-width="1.84375"/>
<line x1="49.1719" y1="7.10785" x2="49.1719" y2="43.3682" stroke="#62666E" stroke-width="1.84375"/>
<line x1="52.8594" y1="4.64954" x2="52.8594" y2="43.3683" stroke="#62666E" stroke-width="1.84375"/>
<line x1="56.5469" y1="8.39648" x2="56.5469" y2="43.3682" stroke="#62666E" stroke-width="1.84375"/>
<line x1="60.2344" y1="4.64954" x2="60.2344" y2="43.3683" stroke="#62666E" stroke-width="1.84375"/>
</g>
<path d="M3.77877 43.6728L9.49027 42.829L5.90373 38.3046L3.77877 43.6728ZM71.5387 0.163223L65.8308 1.0312L69.4365 5.54038L71.5387 0.163223ZM36.5587 17.6877L36.9851 17.4266L36.6904 16.9452L36.2481 17.2958L36.5587 17.6877ZM40.8519 24.701L40.4254 24.9621L40.7214 25.4455L41.1641 25.0915L40.8519 24.701ZM7.61578 41.2692L36.8693 18.0795L36.2481 17.2958L6.99457 40.4856L7.61578 41.2692ZM36.1323 17.9487L40.4254 24.9621L41.2783 24.44L36.9851 17.4266L36.1323 17.9487ZM41.1641 25.0915L68.3364 3.36404L67.7119 2.58303L40.5396 24.3105L41.1641 25.0915Z" fill="#8F9298"/>
<path d="M88.0389 36.7769L88.0269 38.6729H77.4309V21.4769H88.0269V23.3729H79.7589V29.0849H86.4549V30.9089H79.7589V36.7769H88.0389ZM100.762 38.6729H98.7104C98.5344 38.6729 98.3944 38.6289 98.2904 38.5409C98.1944 38.4449 98.1144 38.3409 98.0504 38.2289L94.9904 33.4649C94.9584 33.5769 94.9224 33.6889 94.8824 33.8009C94.8504 33.9049 94.8024 34.0009 94.7384 34.0889L91.9064 38.2289C91.8264 38.3409 91.7384 38.4449 91.6424 38.5409C91.5544 38.6289 91.4304 38.6729 91.2704 38.6729H89.3624L93.6224 32.4329L89.5304 26.5169H91.5824C91.7584 26.5169 91.8864 26.5449 91.9664 26.6009C92.0464 26.6569 92.1184 26.7369 92.1824 26.8409L95.1704 31.4009C95.2344 31.1689 95.3344 30.9449 95.4704 30.7289L98.0864 26.8889C98.1584 26.7769 98.2344 26.6889 98.3144 26.6249C98.4024 26.5529 98.5064 26.5169 98.6264 26.5169H100.594L96.5024 32.3249L100.762 38.6729ZM104.88 35.7449C105.272 36.2729 105.7 36.6449 106.164 36.8609C106.628 37.0769 107.148 37.1849 107.724 37.1849C108.86 37.1849 109.732 36.7809 110.34 35.9729C110.948 35.1649 111.252 34.0129 111.252 32.5169C111.252 31.7249 111.18 31.0449 111.036 30.4769C110.9 29.9089 110.7 29.4449 110.436 29.0849C110.172 28.7169 109.848 28.4489 109.464 28.2809C109.08 28.1129 108.644 28.0289 108.156 28.0289C107.46 28.0289 106.848 28.1889 106.32 28.5089C105.8 28.8289 105.32 29.2809 104.88 29.8649V35.7449ZM104.772 28.4009C105.284 27.7689 105.876 27.2609 106.548 26.8769C107.22 26.4929 107.988 26.3009 108.852 26.3009C109.556 26.3009 110.192 26.4369 110.76 26.7089C111.328 26.9729 111.812 27.3689 112.212 27.8969C112.612 28.4169 112.92 29.0649 113.136 29.8409C113.352 30.6169 113.46 31.5089 113.46 32.5169C113.46 33.4129 113.34 34.2489 113.1 35.0249C112.86 35.7929 112.512 36.4609 112.056 37.0289C111.608 37.5889 111.056 38.0329 110.4 38.3609C109.752 38.6809 109.02 38.8409 108.204 38.8409C107.46 38.8409 106.82 38.7169 106.284 38.4689C105.756 38.2129 105.288 37.8609 104.88 37.4129V42.7889H102.732V26.5169H104.016C104.32 26.5169 104.508 26.6649 104.58 26.9609L104.772 28.4009ZM124.321 31.2689C124.321 30.7729 124.249 30.3209 124.105 29.9129C123.969 29.4969 123.765 29.1409 123.493 28.8449C123.229 28.5409 122.905 28.3089 122.521 28.1489C122.137 27.9809 121.701 27.8969 121.213 27.8969C120.189 27.8969 119.377 28.1969 118.777 28.7969C118.185 29.3889 117.817 30.2129 117.673 31.2689H124.321ZM126.049 36.9689C125.785 37.2889 125.469 37.5689 125.101 37.8089C124.733 38.0409 124.337 38.2329 123.913 38.3849C123.497 38.5369 123.065 38.6489 122.617 38.7209C122.169 38.8009 121.725 38.8409 121.285 38.8409C120.445 38.8409 119.669 38.7009 118.957 38.4209C118.253 38.1329 117.641 37.7169 117.121 37.1729C116.609 36.6209 116.209 35.9409 115.921 35.1329C115.633 34.3249 115.489 33.3969 115.489 32.3489C115.489 31.5009 115.617 30.7089 115.873 29.9729C116.137 29.2369 116.513 28.6009 117.001 28.0649C117.489 27.5209 118.085 27.0969 118.789 26.7929C119.493 26.4809 120.285 26.3249 121.165 26.3249C121.893 26.3249 122.565 26.4489 123.181 26.6969C123.805 26.9369 124.341 27.2889 124.789 27.7529C125.245 28.2089 125.601 28.7769 125.857 29.4569C126.113 30.1289 126.241 30.8969 126.241 31.7609C126.241 32.0969 126.205 32.3209 126.133 32.4329C126.061 32.5449 125.925 32.6009 125.725 32.6009H117.601C117.625 33.3689 117.729 34.0369 117.913 34.6049C118.105 35.1729 118.369 35.6489 118.705 36.0329C119.041 36.4089 119.441 36.6929 119.905 36.8849C120.369 37.0689 120.889 37.1609 121.465 37.1609C122.001 37.1609 122.461 37.1009 122.845 36.9809C123.237 36.8529 123.573 36.7169 123.853 36.5729C124.133 36.4289 124.365 36.2969 124.549 36.1769C124.741 36.0489 124.905 35.9849 125.041 35.9849C125.217 35.9849 125.353 36.0529 125.449 36.1889L126.049 36.9689ZM130.88 28.2809C131.144 27.9849 131.424 27.7169 131.72 27.4769C132.016 27.2369 132.328 27.0329 132.656 26.8649C132.992 26.6889 133.344 26.5569 133.712 26.4689C134.088 26.3729 134.492 26.3249 134.924 26.3249C135.588 26.3249 136.172 26.4369 136.676 26.6609C137.188 26.8769 137.612 27.1889 137.948 27.5969C138.292 27.9969 138.552 28.4809 138.728 29.0489C138.904 29.6169 138.992 30.2449 138.992 30.9329V38.6729H136.844V30.9329C136.844 30.0129 136.632 29.3009 136.208 28.7969C135.792 28.2849 135.156 28.0289 134.3 28.0289C133.668 28.0289 133.076 28.1809 132.524 28.4849C131.98 28.7889 131.476 29.2009 131.012 29.7209V38.6729H128.864V26.5169H130.148C130.452 26.5169 130.64 26.6649 130.712 26.9609L130.88 28.2809ZM149.327 28.5209C149.231 28.6969 149.083 28.7849 148.883 28.7849C148.763 28.7849 148.627 28.7409 148.475 28.6529C148.323 28.5649 148.135 28.4689 147.911 28.3649C147.695 28.2529 147.435 28.1529 147.131 28.0649C146.827 27.9689 146.467 27.9209 146.051 27.9209C145.691 27.9209 145.367 27.9689 145.079 28.0649C144.791 28.1529 144.543 28.2769 144.335 28.4369C144.135 28.5969 143.979 28.7849 143.867 29.0009C143.763 29.2089 143.711 29.4369 143.711 29.6849C143.711 29.9969 143.799 30.2569 143.975 30.4649C144.159 30.6729 144.399 30.8529 144.695 31.0049C144.991 31.1569 145.327 31.2929 145.703 31.4129C146.079 31.5249 146.463 31.6489 146.855 31.7849C147.255 31.9129 147.643 32.0569 148.019 32.2169C148.395 32.3769 148.731 32.5769 149.027 32.8169C149.323 33.0569 149.559 33.3529 149.735 33.7049C149.919 34.0489 150.011 34.4649 150.011 34.9529C150.011 35.5129 149.911 36.0329 149.711 36.5129C149.511 36.9849 149.215 37.3969 148.823 37.7489C148.431 38.0929 147.951 38.3649 147.383 38.5649C146.815 38.7649 146.159 38.8649 145.415 38.8649C144.567 38.8649 143.799 38.7289 143.111 38.4569C142.423 38.1769 141.839 37.8209 141.359 37.3889L141.863 36.5729C141.927 36.4689 142.003 36.3889 142.091 36.3329C142.179 36.2769 142.291 36.2489 142.427 36.2489C142.571 36.2489 142.723 36.3049 142.883 36.4169C143.043 36.5289 143.235 36.6529 143.459 36.7889C143.691 36.9249 143.971 37.0489 144.299 37.1609C144.627 37.2729 145.035 37.3289 145.523 37.3289C145.939 37.3289 146.303 37.2769 146.615 37.1729C146.927 37.0609 147.187 36.9129 147.395 36.7289C147.603 36.5449 147.755 36.3329 147.851 36.0929C147.955 35.8529 148.007 35.5969 148.007 35.3249C148.007 34.9889 147.915 34.7129 147.731 34.4969C147.555 34.2729 147.319 34.0849 147.023 33.9329C146.727 33.7729 146.387 33.6369 146.003 33.5249C145.627 33.4049 145.239 33.2809 144.839 33.1529C144.447 33.0249 144.059 32.8809 143.675 32.7209C143.299 32.5529 142.963 32.3449 142.667 32.0969C142.371 31.8489 142.131 31.5449 141.947 31.1849C141.771 30.8169 141.683 30.3729 141.683 29.8529C141.683 29.3889 141.779 28.9449 141.971 28.5209C142.163 28.0889 142.443 27.7129 142.811 27.3929C143.179 27.0649 143.631 26.8049 144.167 26.6129C144.703 26.4209 145.315 26.3249 146.003 26.3249C146.803 26.3249 147.519 26.4529 148.151 26.7089C148.791 26.9569 149.343 27.3009 149.807 27.7409L149.327 28.5209ZM160.766 31.2689C160.766 30.7729 160.694 30.3209 160.55 29.9129C160.414 29.4969 160.21 29.1409 159.938 28.8449C159.674 28.5409 159.35 28.3089 158.966 28.1489C158.582 27.9809 158.146 27.8969 157.658 27.8969C156.634 27.8969 155.822 28.1969 155.222 28.7969C154.63 29.3889 154.262 30.2129 154.118 31.2689H160.766ZM162.494 36.9689C162.23 37.2889 161.914 37.5689 161.546 37.8089C161.178 38.0409 160.782 38.2329 160.358 38.3849C159.942 38.5369 159.51 38.6489 159.062 38.7209C158.614 38.8009 158.17 38.8409 157.73 38.8409C156.89 38.8409 156.114 38.7009 155.402 38.4209C154.698 38.1329 154.086 37.7169 153.566 37.1729C153.054 36.6209 152.654 35.9409 152.366 35.1329C152.078 34.3249 151.934 33.3969 151.934 32.3489C151.934 31.5009 152.062 30.7089 152.318 29.9729C152.582 29.2369 152.958 28.6009 153.446 28.0649C153.934 27.5209 154.53 27.0969 155.234 26.7929C155.938 26.4809 156.73 26.3249 157.61 26.3249C158.338 26.3249 159.01 26.4489 159.626 26.6969C160.25 26.9369 160.786 27.2889 161.234 27.7529C161.69 28.2089 162.046 28.7769 162.302 29.4569C162.558 30.1289 162.686 30.8969 162.686 31.7609C162.686 32.0969 162.65 32.3209 162.578 32.4329C162.506 32.5449 162.37 32.6009 162.17 32.6009H154.046C154.07 33.3689 154.174 34.0369 154.358 34.6049C154.55 35.1729 154.814 35.6489 155.15 36.0329C155.486 36.4089 155.886 36.6929 156.35 36.8849C156.814 37.0689 157.334 37.1609 157.91 37.1609C158.446 37.1609 158.906 37.1009 159.29 36.9809C159.682 36.8529 160.018 36.7169 160.298 36.5729C160.578 36.4289 160.81 36.2969 160.994 36.1769C161.186 36.0489 161.35 35.9849 161.486 35.9849C161.662 35.9849 161.798 36.0529 161.894 36.1889L162.494 36.9689ZM180.178 21.3209V38.6729H178.522C178.266 38.6729 178.05 38.6329 177.874 38.5529C177.706 38.4649 177.542 38.3209 177.382 38.1209L168.322 26.5529C168.37 27.0809 168.394 27.5689 168.394 28.0169V38.6729H165.55V21.3209H167.242C167.378 21.3209 167.494 21.3289 167.59 21.3449C167.694 21.3529 167.782 21.3769 167.854 21.4169C167.934 21.4489 168.01 21.5009 168.082 21.5729C168.154 21.6369 168.234 21.7249 168.322 21.8369L177.418 33.4529C177.394 33.1729 177.374 32.8969 177.358 32.6249C177.342 32.3529 177.334 32.1009 177.334 31.8689V21.3209H180.178ZM198.346 29.9729V36.9929C197.466 37.6409 196.526 38.1169 195.526 38.4209C194.534 38.7169 193.47 38.8649 192.334 38.8649C190.918 38.8649 189.634 38.6449 188.482 38.2049C187.338 37.7649 186.358 37.1529 185.542 36.3689C184.734 35.5849 184.11 34.6489 183.67 33.5609C183.23 32.4729 183.01 31.2849 183.01 29.9969C183.01 28.6929 183.222 27.4969 183.646 26.4089C184.07 25.3209 184.67 24.3849 185.446 23.6009C186.23 22.8169 187.178 22.2089 188.29 21.7769C189.402 21.3449 190.65 21.1289 192.034 21.1289C192.738 21.1289 193.394 21.1849 194.002 21.2969C194.618 21.4089 195.186 21.5649 195.706 21.7649C196.234 21.9569 196.714 22.1929 197.146 22.4729C197.578 22.7529 197.974 23.0609 198.334 23.3969L197.41 24.8609C197.266 25.0929 197.078 25.2369 196.846 25.2929C196.614 25.3409 196.362 25.2809 196.09 25.1129C195.826 24.9609 195.562 24.8089 195.298 24.6569C195.034 24.5049 194.738 24.3729 194.41 24.2609C194.09 24.1489 193.726 24.0569 193.318 23.9849C192.918 23.9129 192.454 23.8769 191.926 23.8769C191.07 23.8769 190.294 24.0209 189.598 24.3089C188.91 24.5969 188.322 25.0089 187.834 25.5449C187.346 26.0809 186.97 26.7249 186.706 27.4769C186.442 28.2289 186.31 29.0689 186.31 29.9969C186.31 30.9889 186.45 31.8769 186.73 32.6609C187.018 33.4369 187.418 34.0969 187.93 34.6409C188.45 35.1769 189.074 35.5889 189.802 35.8769C190.53 36.1569 191.342 36.2969 192.238 36.2969C192.878 36.2969 193.45 36.2289 193.954 36.0929C194.458 35.9569 194.95 35.7729 195.43 35.5409V32.3969H193.246C193.038 32.3969 192.874 32.3409 192.754 32.2289C192.642 32.1089 192.586 31.9649 192.586 31.7969V29.9729H198.346Z" fill="#EBF1EF"/>
<path d="M201.927 37.7489C201.927 37.5969 201.955 37.4529 202.011 37.3169C202.067 37.1809 202.143 37.0649 202.239 36.9689C202.343 36.8649 202.459 36.7849 202.587 36.7289C202.723 36.6649 202.871 36.6329 203.031 36.6329C203.183 36.6329 203.327 36.6649 203.463 36.7289C203.599 36.7849 203.715 36.8649 203.811 36.9689C203.915 37.0649 203.995 37.1809 204.051 37.3169C204.115 37.4529 204.147 37.5969 204.147 37.7489C204.147 37.9089 204.115 38.0569 204.051 38.1929C203.995 38.3209 203.915 38.4369 203.811 38.5409C203.715 38.6369 203.599 38.7129 203.463 38.7689C203.327 38.8249 203.183 38.8529 203.031 38.8529C202.719 38.8529 202.455 38.7489 202.239 38.5409C202.031 38.3249 201.927 38.0609 201.927 37.7489ZM215.832 28.3289C215.792 28.3689 215.752 28.4049 215.712 28.4369C215.68 28.4609 215.632 28.4729 215.568 28.4729C215.488 28.4729 215.38 28.4209 215.244 28.3169C215.108 28.2049 214.924 28.0849 214.692 27.9569C214.46 27.8289 214.168 27.7129 213.816 27.6089C213.472 27.4969 213.052 27.4409 212.556 27.4409C211.868 27.4409 211.256 27.5649 210.72 27.8129C210.192 28.0529 209.744 28.4009 209.376 28.8569C209.008 29.3129 208.728 29.8649 208.536 30.5129C208.352 31.1609 208.26 31.8889 208.26 32.6969C208.26 33.5369 208.356 34.2809 208.548 34.9289C208.748 35.5769 209.028 36.1249 209.388 36.5729C209.748 37.0129 210.184 37.3489 210.696 37.5809C211.208 37.8129 211.776 37.9289 212.4 37.9289C212.976 37.9289 213.456 37.8609 213.84 37.7249C214.232 37.5889 214.552 37.4409 214.8 37.2809C215.056 37.1209 215.256 36.9729 215.4 36.8369C215.544 36.7009 215.664 36.6329 215.76 36.6329C215.856 36.6329 215.936 36.6729 216 36.7529L216.3 37.1369C216.116 37.3769 215.884 37.6009 215.604 37.8089C215.324 38.0169 215.008 38.1969 214.656 38.3489C214.304 38.5009 213.92 38.6169 213.504 38.6969C213.096 38.7849 212.668 38.8289 212.22 38.8289C211.46 38.8289 210.764 38.6929 210.132 38.4209C209.508 38.1409 208.968 37.7409 208.512 37.2209C208.064 36.6929 207.712 36.0489 207.456 35.2889C207.208 34.5289 207.084 33.6649 207.084 32.6969C207.084 31.7849 207.204 30.9529 207.444 30.2009C207.684 29.4489 208.036 28.8009 208.5 28.2569C208.964 27.7129 209.528 27.2929 210.192 26.9969C210.864 26.6929 211.632 26.5409 212.496 26.5409C213.272 26.5409 213.96 26.6649 214.56 26.9129C215.16 27.1609 215.684 27.4969 216.132 27.9209L215.832 28.3289ZM223.618 26.5409C224.474 26.5409 225.238 26.6889 225.91 26.9849C226.59 27.2729 227.162 27.6849 227.626 28.2209C228.09 28.7569 228.442 29.4049 228.682 30.1649C228.93 30.9169 229.054 31.7609 229.054 32.6969C229.054 33.6329 228.93 34.4769 228.682 35.2289C228.442 35.9809 228.09 36.6249 227.626 37.1609C227.162 37.6969 226.59 38.1089 225.91 38.3969C225.238 38.6849 224.474 38.8289 223.618 38.8289C222.762 38.8289 221.994 38.6849 221.314 38.3969C220.642 38.1089 220.07 37.6969 219.598 37.1609C219.134 36.6249 218.778 35.9809 218.53 35.2289C218.29 34.4769 218.17 33.6329 218.17 32.6969C218.17 31.7609 218.29 30.9169 218.53 30.1649C218.778 29.4049 219.134 28.7569 219.598 28.2209C220.07 27.6849 220.642 27.2729 221.314 26.9849C221.994 26.6889 222.762 26.5409 223.618 26.5409ZM223.618 37.9289C224.33 37.9289 224.95 37.8089 225.478 37.5689C226.014 37.3209 226.458 36.9689 226.81 36.5129C227.17 36.0569 227.438 35.5089 227.614 34.8689C227.79 34.2209 227.878 33.4969 227.878 32.6969C227.878 31.9049 227.79 31.1849 227.614 30.5369C227.438 29.8889 227.17 29.3369 226.81 28.8809C226.458 28.4169 226.014 28.0609 225.478 27.8129C224.95 27.5649 224.33 27.4409 223.618 27.4409C222.906 27.4409 222.282 27.5649 221.746 27.8129C221.218 28.0609 220.774 28.4169 220.414 28.8809C220.062 29.3369 219.794 29.8889 219.61 30.5369C219.434 31.1849 219.346 31.9049 219.346 32.6969C219.346 33.4969 219.434 34.2209 219.61 34.8689C219.794 35.5089 220.062 36.0569 220.414 36.5129C220.774 36.9689 221.218 37.3209 221.746 37.5689C222.282 37.8089 222.906 37.9289 223.618 37.9289ZM232.273 38.6729V26.7329H232.909C233.109 26.7329 233.225 26.8329 233.257 27.0329L233.365 28.7609C233.829 28.0969 234.361 27.5609 234.961 27.1529C235.561 26.7449 236.237 26.5409 236.989 26.5409C237.861 26.5409 238.557 26.7929 239.077 27.2969C239.605 27.8009 239.961 28.5009 240.145 29.3969C240.289 28.9089 240.489 28.4849 240.745 28.1249C241.009 27.7649 241.309 27.4689 241.645 27.2369C241.981 26.9969 242.345 26.8209 242.737 26.7089C243.137 26.5969 243.545 26.5409 243.961 26.5409C244.553 26.5409 245.085 26.6409 245.557 26.8409C246.029 27.0329 246.429 27.3209 246.757 27.7049C247.085 28.0889 247.337 28.5609 247.513 29.1209C247.689 29.6809 247.777 30.3209 247.777 31.0409V38.6729H246.637V31.0409C246.637 29.8729 246.385 28.9849 245.881 28.3769C245.377 27.7609 244.657 27.4529 243.721 27.4529C243.305 27.4529 242.905 27.5289 242.521 27.6809C242.145 27.8329 241.809 28.0609 241.513 28.3649C241.225 28.6609 240.993 29.0329 240.817 29.4809C240.649 29.9289 240.565 30.4489 240.565 31.0409V38.6729H239.413V31.0409C239.413 29.8809 239.181 28.9929 238.717 28.3769C238.261 27.7609 237.589 27.4529 236.701 27.4529C236.053 27.4529 235.453 27.6449 234.901 28.0289C234.349 28.4129 233.857 28.9449 233.425 29.6249V38.6729H232.273Z" fill="#EBF1EF"/>
</g>
<defs>
<clipPath id="clip0">
<rect width="250.235" height="43.6728" fill="white"/>
</clipPath>
<clipPath id="clip1">
<rect width="59" height="38.7187" fill="white" transform="translate(4 4.64954)"/>
</clipPath>
</defs>
</svg>
