<svg width="24" height="24" viewBox="0 0 24 24" fill="none" xmlns="http://www.w3.org/2000/svg">
<path d="M10.4999 20.5C12.7186 20.4995 14.8734 19.7568 16.6211 18.39L22.1161 23.885L23.8836 22.1175L18.3886 16.6225C19.7561 14.8746 20.4993 12.7193 20.4999 10.5C20.4999 4.98625 16.0136 0.5 10.4999 0.5C4.98613 0.5 0.499878 4.98625 0.499878 10.5C0.499878 16.0137 4.98613 20.5 10.4999 20.5ZM10.4999 3C14.6361 3 17.9999 6.36375 17.9999 10.5C17.9999 14.6362 14.6361 18 10.4999 18C6.36363 18 2.99988 14.6362 2.99988 10.5C2.99988 6.36375 6.36363 3 10.4999 3Z" fill="#8F9298"/>
</svg>
