<svg width="137" height="24" viewBox="0 0 137 24" fill="none" xmlns="http://www.w3.org/2000/svg">
<g clip-path="url(#clip0)">
<path d="M29.5477 2.84287C28.7249 4.06666 27.7156 5.10989 26.5195 5.97254C26.5313 6.2039 26.5372 6.4654 26.5372 6.75703C26.5372 8.3774 26.301 9.99973 25.8285 11.624C25.3561 13.2483 24.6343 14.8031 23.6634 16.2882C22.6924 17.7734 21.5358 19.0892 20.1936 20.2355C18.8514 21.3818 17.238 22.2958 15.3533 22.9775C13.4687 23.6592 11.4489 24 9.29397 24C5.93077 24 2.83359 23.0921 0.00244141 21.2762C0.504937 21.3321 0.986873 21.3601 1.44825 21.3601C4.25793 21.3601 6.76743 20.4947 8.97674 18.7638C7.66671 18.7398 6.49347 18.3365 5.45704 17.554C4.42061 16.7715 3.70736 15.7716 3.3173 14.5543C3.70285 14.6277 4.08338 14.6645 4.45888 14.6645C4.99939 14.6645 5.53125 14.594 6.05445 14.453C4.6564 14.173 3.4966 13.4766 2.57505 12.364C1.65353 11.2514 1.19277 9.9672 1.19277 8.51146V8.43643C2.0509 8.91157 2.96623 9.1643 3.93875 9.19464C3.11056 8.64251 2.45393 7.92252 1.96886 7.03466C1.48375 6.14681 1.2412 5.18599 1.2412 4.15222C1.2412 3.06193 1.51441 2.04666 2.06083 1.10642C3.58118 2.97214 5.4234 4.46327 7.5875 5.57983C9.75163 6.69641 12.0733 7.31652 14.5526 7.44017C14.4468 6.99948 14.3939 6.5396 14.3937 6.06053C14.3937 4.38779 14.9856 2.95952 16.1695 1.77571C17.3535 0.591904 18.7818 0 20.4545 0C22.2058 0 23.681 0.637688 24.8799 1.91306C26.2498 1.64172 27.5325 1.15093 28.7279 0.440688C28.2674 1.89013 27.3799 3.00827 26.0655 3.79512C27.2736 3.65157 28.4343 3.33415 29.5476 2.84287H29.5477Z" fill="#EBF1EF"/>
</g>
<path d="M46.495 12.602C46.261 12.548 46.003 12.521 45.721 12.521C45.271 12.521 44.857 12.617 44.479 12.809C44.107 12.995 43.786 13.241 43.516 13.547C43.246 13.853 43.033 14.204 42.877 14.6C42.727 14.996 42.652 15.401 42.652 15.815C42.652 16.247 42.751 16.595 42.949 16.859C43.147 17.117 43.441 17.246 43.831 17.246C44.017 17.246 44.203 17.216 44.389 17.156C44.581 17.096 44.764 16.991 44.938 16.841C45.118 16.691 45.283 16.487 45.433 16.229C45.583 15.971 45.709 15.647 45.811 15.257L46.495 12.602ZM47.053 15.113C46.933 15.569 46.876 15.941 46.882 16.229C46.888 16.511 46.933 16.733 47.017 16.895C47.107 17.057 47.23 17.168 47.386 17.228C47.542 17.282 47.713 17.309 47.899 17.309C48.193 17.309 48.472 17.225 48.736 17.057C49 16.889 49.231 16.652 49.429 16.346C49.633 16.04 49.792 15.674 49.906 15.248C50.026 14.816 50.086 14.339 50.086 13.817C50.086 12.989 49.954 12.263 49.69 11.639C49.426 11.015 49.06 10.496 48.592 10.082C48.13 9.662 47.581 9.35 46.945 9.146C46.315 8.936 45.634 8.831 44.902 8.831C44.098 8.831 43.345 8.984 42.643 9.29C41.941 9.596 41.329 10.019 40.807 10.559C40.285 11.099 39.871 11.738 39.565 12.476C39.265 13.214 39.115 14.018 39.115 14.888C39.115 15.908 39.274 16.805 39.592 17.579C39.916 18.347 40.354 18.992 40.906 19.514C41.464 20.036 42.118 20.429 42.868 20.693C43.618 20.957 44.422 21.089 45.28 21.089C46.192 21.089 46.996 20.99 47.692 20.792C48.394 20.594 49 20.342 49.51 20.036C49.63 19.964 49.735 19.943 49.825 19.973C49.915 19.997 49.981 20.063 50.023 20.171L50.257 20.765C49.609 21.197 48.874 21.536 48.052 21.782C47.236 22.028 46.312 22.151 45.28 22.151C44.236 22.151 43.267 21.986 42.373 21.656C41.479 21.326 40.702 20.849 40.042 20.225C39.388 19.607 38.872 18.848 38.494 17.948C38.122 17.048 37.936 16.028 37.936 14.888C37.936 14.234 38.017 13.604 38.179 12.998C38.347 12.392 38.581 11.828 38.881 11.306C39.181 10.778 39.541 10.298 39.961 9.866C40.381 9.428 40.849 9.056 41.365 8.75C41.881 8.438 42.436 8.198 43.03 8.03C43.63 7.856 44.254 7.769 44.902 7.769C45.454 7.769 45.994 7.829 46.522 7.949C47.05 8.069 47.548 8.246 48.016 8.48C48.49 8.714 48.922 9.005 49.312 9.353C49.708 9.695 50.05 10.091 50.338 10.541C50.626 10.985 50.848 11.483 51.004 12.035C51.166 12.581 51.247 13.175 51.247 13.817C51.247 14.465 51.154 15.065 50.968 15.617C50.788 16.163 50.536 16.637 50.212 17.039C49.894 17.441 49.516 17.756 49.078 17.984C48.64 18.212 48.169 18.326 47.665 18.326C47.209 18.326 46.831 18.215 46.531 17.993C46.237 17.765 46.048 17.42 45.964 16.958C45.622 17.438 45.247 17.783 44.839 17.993C44.431 18.203 43.99 18.308 43.516 18.308C43.162 18.308 42.85 18.248 42.58 18.128C42.316 18.002 42.097 17.831 41.923 17.615C41.749 17.393 41.617 17.132 41.527 16.832C41.443 16.532 41.401 16.208 41.401 15.86C41.401 15.35 41.497 14.837 41.689 14.321C41.887 13.799 42.178 13.331 42.562 12.917C42.946 12.497 43.423 12.155 43.993 11.891C44.563 11.627 45.223 11.495 45.973 11.495C46.375 11.495 46.729 11.528 47.035 11.594C47.341 11.654 47.629 11.744 47.899 11.864L47.053 15.113ZM59.4355 14.447C59.4355 14.075 59.3815 13.736 59.2735 13.43C59.1715 13.118 59.0185 12.851 58.8145 12.629C58.6165 12.401 58.3735 12.227 58.0855 12.107C57.7975 11.981 57.4705 11.918 57.1045 11.918C56.3365 11.918 55.7275 12.143 55.2775 12.593C54.8335 13.037 54.5575 13.655 54.4495 14.447H59.4355ZM60.7315 18.722C60.5335 18.962 60.2965 19.172 60.0205 19.352C59.7445 19.526 59.4475 19.67 59.1295 19.784C58.8175 19.898 58.4935 19.982 58.1575 20.036C57.8215 20.096 57.4885 20.126 57.1585 20.126C56.5285 20.126 55.9465 20.021 55.4125 19.811C54.8845 19.595 54.4255 19.283 54.0355 18.875C53.6515 18.461 53.3515 17.951 53.1355 17.345C52.9195 16.739 52.8115 16.043 52.8115 15.257C52.8115 14.621 52.9075 14.027 53.0995 13.475C53.2975 12.923 53.5795 12.446 53.9455 12.044C54.3115 11.636 54.7585 11.318 55.2865 11.09C55.8145 10.856 56.4085 10.739 57.0685 10.739C57.6145 10.739 58.1185 10.832 58.5805 11.018C59.0485 11.198 59.4505 11.462 59.7865 11.81C60.1285 12.152 60.3955 12.578 60.5875 13.088C60.7795 13.592 60.8755 14.168 60.8755 14.816C60.8755 15.068 60.8485 15.236 60.7945 15.32C60.7405 15.404 60.6385 15.446 60.4885 15.446H54.3955C54.4135 16.022 54.4915 16.523 54.6295 16.949C54.7735 17.375 54.9715 17.732 55.2235 18.02C55.4755 18.302 55.7755 18.515 56.1235 18.659C56.4715 18.797 56.8615 18.866 57.2935 18.866C57.6955 18.866 58.0405 18.821 58.3285 18.731C58.6225 18.635 58.8745 18.533 59.0845 18.425C59.2945 18.317 59.4685 18.218 59.6065 18.128C59.7505 18.032 59.8735 17.984 59.9755 17.984C60.1075 17.984 60.2095 18.035 60.2815 18.137L60.7315 18.722ZM70.2082 20H68.6692C68.5372 20 68.4322 19.967 68.3542 19.901C68.2822 19.829 68.2222 19.751 68.1742 19.667L65.8792 16.094C65.8552 16.178 65.8282 16.262 65.7982 16.346C65.7742 16.424 65.7382 16.496 65.6902 16.562L63.5662 19.667C63.5062 19.751 63.4402 19.829 63.3682 19.901C63.3022 19.967 63.2092 20 63.0892 20H61.6582L64.8532 15.32L61.7842 10.883H63.3232C63.4552 10.883 63.5512 10.904 63.6112 10.946C63.6712 10.988 63.7252 11.048 63.7732 11.126L66.0142 14.546C66.0622 14.372 66.1372 14.204 66.2392 14.042L68.2012 11.162C68.2552 11.078 68.3122 11.012 68.3722 10.964C68.4382 10.91 68.5162 10.883 68.6062 10.883H70.0822L67.0132 15.239L70.2082 20ZM73.296 17.804C73.59 18.2 73.911 18.479 74.259 18.641C74.607 18.803 74.997 18.884 75.429 18.884C76.281 18.884 76.935 18.581 77.391 17.975C77.847 17.369 78.075 16.505 78.075 15.383C78.075 14.789 78.021 14.279 77.913 13.853C77.811 13.427 77.661 13.079 77.463 12.809C77.265 12.533 77.022 12.332 76.734 12.206C76.446 12.08 76.119 12.017 75.753 12.017C75.231 12.017 74.772 12.137 74.376 12.377C73.986 12.617 73.626 12.956 73.296 13.394V17.804ZM73.215 12.296C73.599 11.822 74.043 11.441 74.547 11.153C75.051 10.865 75.627 10.721 76.275 10.721C76.803 10.721 77.28 10.823 77.706 11.027C78.132 11.225 78.495 11.522 78.795 11.918C79.095 12.308 79.326 12.794 79.488 13.376C79.65 13.958 79.731 14.627 79.731 15.383C79.731 16.055 79.641 16.682 79.461 17.264C79.281 17.84 79.02 18.341 78.678 18.767C78.342 19.187 77.928 19.52 77.436 19.766C76.95 20.006 76.401 20.126 75.789 20.126C75.231 20.126 74.751 20.033 74.349 19.847C73.953 19.655 73.602 19.391 73.296 19.055V23.087H71.685V10.883H72.648C72.876 10.883 73.017 10.994 73.071 11.216L73.215 12.296ZM87.8769 14.447C87.8769 14.075 87.8229 13.736 87.7149 13.43C87.6129 13.118 87.4599 12.851 87.2559 12.629C87.0579 12.401 86.8149 12.227 86.5269 12.107C86.2389 11.981 85.9119 11.918 85.5459 11.918C84.7779 11.918 84.1689 12.143 83.7189 12.593C83.2749 13.037 82.9989 13.655 82.8909 14.447H87.8769ZM89.1729 18.722C88.9749 18.962 88.7379 19.172 88.4619 19.352C88.1859 19.526 87.8889 19.67 87.5709 19.784C87.2589 19.898 86.9349 19.982 86.5989 20.036C86.2629 20.096 85.9299 20.126 85.5999 20.126C84.9699 20.126 84.3879 20.021 83.8539 19.811C83.3259 19.595 82.8669 19.283 82.4769 18.875C82.0929 18.461 81.7929 17.951 81.5769 17.345C81.3609 16.739 81.2529 16.043 81.2529 15.257C81.2529 14.621 81.3489 14.027 81.5409 13.475C81.7389 12.923 82.0209 12.446 82.3869 12.044C82.7529 11.636 83.1999 11.318 83.7279 11.09C84.2559 10.856 84.8499 10.739 85.5099 10.739C86.0559 10.739 86.5599 10.832 87.0219 11.018C87.4899 11.198 87.8919 11.462 88.2279 11.81C88.5699 12.152 88.8369 12.578 89.0289 13.088C89.2209 13.592 89.3169 14.168 89.3169 14.816C89.3169 15.068 89.2899 15.236 89.2359 15.32C89.1819 15.404 89.0799 15.446 88.9299 15.446H82.8369C82.8549 16.022 82.9329 16.523 83.0709 16.949C83.2149 17.375 83.4129 17.732 83.6649 18.02C83.9169 18.302 84.2169 18.515 84.5649 18.659C84.9129 18.797 85.3029 18.866 85.7349 18.866C86.1369 18.866 86.4819 18.821 86.7699 18.731C87.0639 18.635 87.3159 18.533 87.5259 18.425C87.7359 18.317 87.9099 18.218 88.0479 18.128C88.1919 18.032 88.3149 17.984 88.4169 17.984C88.5489 17.984 88.6509 18.035 88.7229 18.137L89.1729 18.722ZM92.7966 12.206C92.9946 11.984 93.2046 11.783 93.4266 11.603C93.6486 11.423 93.8826 11.27 94.1286 11.144C94.3806 11.012 94.6446 10.913 94.9206 10.847C95.2026 10.775 95.5056 10.739 95.8296 10.739C96.3276 10.739 96.7656 10.823 97.1436 10.991C97.5276 11.153 97.8456 11.387 98.0976 11.693C98.3556 11.993 98.5506 12.356 98.6826 12.782C98.8146 13.208 98.8806 13.679 98.8806 14.195V20H97.2696V14.195C97.2696 13.505 97.1106 12.971 96.7926 12.593C96.4806 12.209 96.0036 12.017 95.3616 12.017C94.8876 12.017 94.4436 12.131 94.0296 12.359C93.6216 12.587 93.2436 12.896 92.8956 13.286V20H91.2846V10.883H92.2476C92.4756 10.883 92.6166 10.994 92.6706 11.216L92.7966 12.206ZM106.632 12.386C106.56 12.518 106.449 12.584 106.299 12.584C106.209 12.584 106.107 12.551 105.993 12.485C105.879 12.419 105.738 12.347 105.57 12.269C105.408 12.185 105.213 12.11 104.985 12.044C104.757 11.972 104.487 11.936 104.175 11.936C103.905 11.936 103.662 11.972 103.446 12.044C103.23 12.11 103.044 12.203 102.888 12.323C102.738 12.443 102.621 12.584 102.537 12.746C102.459 12.902 102.42 13.073 102.42 13.259C102.42 13.493 102.486 13.688 102.618 13.844C102.756 14 102.936 14.135 103.158 14.249C103.38 14.363 103.632 14.465 103.914 14.555C104.196 14.639 104.484 14.732 104.778 14.834C105.078 14.93 105.369 15.038 105.651 15.158C105.933 15.278 106.185 15.428 106.407 15.608C106.629 15.788 106.806 16.01 106.938 16.274C107.076 16.532 107.145 16.844 107.145 17.21C107.145 17.63 107.07 18.02 106.92 18.38C106.77 18.734 106.548 19.043 106.254 19.307C105.96 19.565 105.6 19.769 105.174 19.919C104.748 20.069 104.256 20.144 103.698 20.144C103.062 20.144 102.486 20.042 101.97 19.838C101.454 19.628 101.016 19.361 100.656 19.037L101.034 18.425C101.082 18.347 101.139 18.287 101.205 18.245C101.271 18.203 101.355 18.182 101.457 18.182C101.565 18.182 101.679 18.224 101.799 18.308C101.919 18.392 102.063 18.485 102.231 18.587C102.405 18.689 102.615 18.782 102.861 18.866C103.107 18.95 103.413 18.992 103.779 18.992C104.091 18.992 104.364 18.953 104.598 18.875C104.832 18.791 105.027 18.68 105.183 18.542C105.339 18.404 105.453 18.245 105.525 18.065C105.603 17.885 105.642 17.693 105.642 17.489C105.642 17.237 105.573 17.03 105.435 16.868C105.303 16.7 105.126 16.559 104.904 16.445C104.682 16.325 104.427 16.223 104.139 16.139C103.857 16.049 103.566 15.956 103.266 15.86C102.972 15.764 102.681 15.656 102.393 15.536C102.111 15.41 101.859 15.254 101.637 15.068C101.415 14.882 101.235 14.654 101.097 14.384C100.965 14.108 100.899 13.775 100.899 13.385C100.899 13.037 100.971 12.704 101.115 12.386C101.259 12.062 101.469 11.78 101.745 11.54C102.021 11.294 102.36 11.099 102.762 10.955C103.164 10.811 103.623 10.739 104.139 10.739C104.739 10.739 105.276 10.835 105.75 11.027C106.23 11.213 106.644 11.471 106.992 11.801L106.632 12.386ZM115.211 14.447C115.211 14.075 115.157 13.736 115.049 13.43C114.947 13.118 114.794 12.851 114.59 12.629C114.392 12.401 114.149 12.227 113.861 12.107C113.573 11.981 113.246 11.918 112.88 11.918C112.112 11.918 111.503 12.143 111.053 12.593C110.609 13.037 110.333 13.655 110.225 14.447H115.211ZM116.507 18.722C116.309 18.962 116.072 19.172 115.796 19.352C115.52 19.526 115.223 19.67 114.905 19.784C114.593 19.898 114.269 19.982 113.933 20.036C113.597 20.096 113.264 20.126 112.934 20.126C112.304 20.126 111.722 20.021 111.188 19.811C110.66 19.595 110.201 19.283 109.811 18.875C109.427 18.461 109.127 17.951 108.911 17.345C108.695 16.739 108.587 16.043 108.587 15.257C108.587 14.621 108.683 14.027 108.875 13.475C109.073 12.923 109.355 12.446 109.721 12.044C110.087 11.636 110.534 11.318 111.062 11.09C111.59 10.856 112.184 10.739 112.844 10.739C113.39 10.739 113.894 10.832 114.356 11.018C114.824 11.198 115.226 11.462 115.562 11.81C115.904 12.152 116.171 12.578 116.363 13.088C116.555 13.592 116.651 14.168 116.651 14.816C116.651 15.068 116.624 15.236 116.57 15.32C116.516 15.404 116.414 15.446 116.264 15.446H110.171C110.189 16.022 110.267 16.523 110.405 16.949C110.549 17.375 110.747 17.732 110.999 18.02C111.251 18.302 111.551 18.515 111.899 18.659C112.247 18.797 112.637 18.866 113.069 18.866C113.471 18.866 113.816 18.821 114.104 18.731C114.398 18.635 114.65 18.533 114.86 18.425C115.07 18.317 115.244 18.218 115.382 18.128C115.526 18.032 115.649 17.984 115.751 17.984C115.883 17.984 115.985 18.035 116.057 18.137L116.507 18.722ZM120.131 12.206C120.329 11.984 120.539 11.783 120.761 11.603C120.983 11.423 121.217 11.27 121.463 11.144C121.715 11.012 121.979 10.913 122.255 10.847C122.537 10.775 122.84 10.739 123.164 10.739C123.662 10.739 124.1 10.823 124.478 10.991C124.862 11.153 125.18 11.387 125.432 11.693C125.69 11.993 125.885 12.356 126.017 12.782C126.149 13.208 126.215 13.679 126.215 14.195V20H124.604V14.195C124.604 13.505 124.445 12.971 124.127 12.593C123.815 12.209 123.338 12.017 122.696 12.017C122.222 12.017 121.778 12.131 121.364 12.359C120.956 12.587 120.578 12.896 120.23 13.286V20H118.619V10.883H119.582C119.81 10.883 119.951 10.994 120.005 11.216L120.131 12.206ZM131.833 15.545C132.157 15.545 132.442 15.5 132.688 15.41C132.934 15.32 133.141 15.194 133.309 15.032C133.477 14.87 133.603 14.678 133.687 14.456C133.771 14.228 133.813 13.979 133.813 13.709C133.813 13.151 133.642 12.707 133.3 12.377C132.964 12.047 132.475 11.882 131.833 11.882C131.185 11.882 130.69 12.047 130.348 12.377C130.012 12.707 129.844 13.151 129.844 13.709C129.844 13.979 129.886 14.228 129.97 14.456C130.06 14.678 130.189 14.87 130.357 15.032C130.525 15.194 130.732 15.32 130.978 15.41C131.224 15.5 131.509 15.545 131.833 15.545ZM134.722 20.495C134.722 20.273 134.659 20.093 134.533 19.955C134.407 19.817 134.236 19.709 134.02 19.631C133.81 19.553 133.564 19.499 133.282 19.469C133 19.433 132.7 19.406 132.382 19.388C132.07 19.37 131.752 19.352 131.428 19.334C131.104 19.316 130.792 19.286 130.492 19.244C130.156 19.4 129.88 19.598 129.664 19.838C129.454 20.072 129.349 20.348 129.349 20.666C129.349 20.87 129.4 21.059 129.502 21.233C129.61 21.413 129.772 21.566 129.988 21.692C130.204 21.824 130.474 21.926 130.798 21.998C131.128 22.076 131.515 22.115 131.959 22.115C132.391 22.115 132.778 22.076 133.12 21.998C133.462 21.92 133.75 21.809 133.984 21.665C134.224 21.521 134.407 21.35 134.533 21.152C134.659 20.954 134.722 20.735 134.722 20.495ZM136.351 11.243V11.837C136.351 12.035 136.225 12.161 135.973 12.215L134.938 12.35C135.142 12.746 135.244 13.184 135.244 13.664C135.244 14.108 135.157 14.513 134.983 14.879C134.815 15.239 134.581 15.548 134.281 15.806C133.981 16.064 133.621 16.262 133.201 16.4C132.781 16.538 132.325 16.607 131.833 16.607C131.407 16.607 131.005 16.556 130.627 16.454C130.435 16.574 130.288 16.703 130.186 16.841C130.084 16.973 130.033 17.108 130.033 17.246C130.033 17.462 130.12 17.627 130.294 17.741C130.474 17.849 130.708 17.927 130.996 17.975C131.284 18.023 131.611 18.053 131.977 18.065C132.349 18.077 132.727 18.098 133.111 18.128C133.501 18.152 133.879 18.197 134.245 18.263C134.617 18.329 134.947 18.437 135.235 18.587C135.523 18.737 135.754 18.944 135.928 19.208C136.108 19.472 136.198 19.814 136.198 20.234C136.198 20.624 136.099 21.002 135.901 21.368C135.709 21.734 135.43 22.058 135.064 22.34C134.698 22.628 134.248 22.856 133.714 23.024C133.186 23.198 132.589 23.285 131.923 23.285C131.257 23.285 130.675 23.219 130.177 23.087C129.679 22.955 129.265 22.778 128.935 22.556C128.605 22.334 128.356 22.076 128.188 21.782C128.026 21.494 127.945 21.191 127.945 20.873C127.945 20.423 128.086 20.042 128.368 19.73C128.65 19.418 129.037 19.169 129.529 18.983C129.259 18.863 129.043 18.704 128.881 18.506C128.725 18.302 128.647 18.029 128.647 17.687C128.647 17.555 128.671 17.42 128.719 17.282C128.767 17.138 128.839 16.997 128.935 16.859C129.037 16.715 129.16 16.58 129.304 16.454C129.448 16.328 129.616 16.217 129.808 16.121C129.358 15.869 129.007 15.536 128.755 15.122C128.503 14.702 128.377 14.216 128.377 13.664C128.377 13.22 128.461 12.818 128.629 12.458C128.803 12.092 129.043 11.783 129.349 11.531C129.655 11.273 130.018 11.075 130.438 10.937C130.864 10.799 131.329 10.73 131.833 10.73C132.229 10.73 132.598 10.775 132.94 10.865C133.282 10.949 133.594 11.075 133.876 11.243H136.351Z" fill="white"/>
<defs>
<clipPath id="clip0">
<rect width="29.55" height="24" fill="white"/>
</clipPath>
</defs>
</svg>
